<?xml version="1.0" standalone="no"?>
<!DOCTYPE svg PUBLIC "-//W3C//DTD SVG 1.1//EN" "http://www.w3.org/Graphics/SVG/1.1/DTD/svg11.dtd" >
<svg xmlns="http://www.w3.org/2000/svg">
<metadata></metadata>
<defs>
<font id="artbrushmedium" horiz-adv-x="688" >
<font-face units-per-em="2048" ascent="1638" descent="-410" />
<missing-glyph horiz-adv-x="512" />
<glyph horiz-adv-x="2048" />
<glyph horiz-adv-x="2048" />
<glyph unicode="&#xd;" horiz-adv-x="0" />
<glyph unicode=" "  horiz-adv-x="512" />
<glyph unicode="&#x09;" horiz-adv-x="512" />
<glyph unicode="&#xa0;" horiz-adv-x="512" />
<glyph unicode="!" horiz-adv-x="639" d="M4 147q0 64 31.5 115.5t95.5 67.5q20 4 31 4q89 0 102 -144q-8 -76 -51 -130t-102 -54q-22 0 -50 10q-24 11 -40.5 48t-16.5 83zM176 459q0 119 42.5 329.5t114.5 404.5t152 284q32 0 50 -6.5t37 -19t30 -15.5q18 0 41 2t31 2q31 0 51 -27l-459 -983q-18 2 -30.5 14.5 l-12.5 12.5q-43 0 -47 2z" />
<glyph unicode="&#x22;" horiz-adv-x="565" d="M39 1038q2 46 5.5 79t20 87t46.5 109q21 40 47.5 117.5t45 116.5t42.5 48q44 -6 67 -52t23 -120q0 -89 -31 -178t-91 -150t-136 -61q-15 0 -39 4zM348 1051q2 44 5.5 77.5t20 87.5t46.5 109q21 39 51 123.5t45.5 117t38.5 42.5q44 -6 67 -54t23 -120q0 -86 -30.5 -176 t-90.5 -150.5t-137 -60.5q-11 0 -39 4z" />
<glyph unicode="#" horiz-adv-x="1094" d="M-10 412l73 147h234l166 359l-236 -5l72 150l233 -2l193 418l149 -2l-192 -414l174 -2l197 416h145l-197 -416l238 2l-70 -148h-235l-168 -358l235 4l-67 -147h-236l-194 -418l-150 2l195 414l-174 2l-199 -416h-143l194 416zM444 561l179 -2l163 354l-176 2z" />
<glyph unicode="$" horiz-adv-x="1106" d="M-82 205q0 69 54 144.5t145 134.5t190 81q26 -17 32 -30t9 -46q-67 -27 -120.5 -75.5t-75.5 -110.5q8 -24 61 -24q60 0 193 30q81 168 156.5 309.5t78.5 141.5q-56 18 -98 39t-74.5 50t-52 72.5t-19.5 100.5q11 63 74.5 133t185.5 137.5t289 114.5q11 31 32 82.5t32 66.5 q0 8 14.5 18.5t54.5 10.5q10 0 46.5 18.5t60.5 18.5q20 0 37 -16q-21 -37 -53.5 -94t-32.5 -60q30 8 114 16q43 9 90 9q81 0 123.5 -39.5t55.5 -134.5q-49 -70 -159 -111.5t-253 -50.5q-4 10 -20.5 30.5t-16.5 32.5q0 28 59 66q-13 10 -28 10q-17 0 -47 -10 q-45 -85 -113.5 -215.5t-69.5 -134.5q72 -16 115 -29.5t64 -34.5q79 -74 79 -190q0 -148 -112 -277q-44 -50 -132 -100t-186.5 -92.5t-232.5 -92.5q-68 -136 -76.5 -152.5t-17.5 -35.5q-3 -13 -13.5 -33t-33.5 -20q-24 9 -26 16.5t-21 7.5q-80 0 -80 31l71 139 q-102 -24 -145 -24q-54 0 -111 28q-96 54 -96 144zM596 360q99 27 161 53.5t110.5 75.5t70.5 127q0 38 -44 72.5t-108 54.5q-28 -58 -60.5 -123t-65 -130.5t-64.5 -129.5zM600 997q0 -2 1 -2t1 11q0 -25 37 -39q40 -15 92 -15l123 230q-57 -24 -147 -77t-107 -108z" />
<glyph unicode="%" horiz-adv-x="946" d="M133 145q3 45 74.5 175t175.5 288.5t199 282.5q75 100 155.5 192.5t177 194t166.5 164t88 63.5q21 0 21 -45q0 -30 -8.5 -68t-14.5 -46q-50 -69 -130 -171.5t-126 -162t-88.5 -116.5t-126.5 -177q-51 -73 -119.5 -178t-134 -211.5t-108.5 -182t-76 -141.5q-6 -12 -16 -12 q-27 0 -68 56t-41 95zM254 1141q0 97 35 180.5t89 145t114.5 99.5t105.5 44q30 0 53 -8t35.5 -22t15.5 -30q3 -18 33.5 -35t46.5 -30.5t19 -44.5q4 -15 4 -45q0 -91 -58.5 -206.5t-143 -197.5t-152.5 -82q-9 0 -25 4q-76 23 -119 65t-51 118q-2 14 -2 45zM395 1137 q0 -40 19 -64q6 -6 14 -6q29 0 84 53t92 107q96 148 96 215q0 24 -18 37q-13 0 -24 -5.5t-29 -17.5t-29 -17t-27 -5q-23 0 -65.5 -50t-77.5 -122t-35 -125zM565 311q0 60 34 134t89.5 144t110.5 111t94 41q35 -5 56.5 -15t33 -22.5t41.5 -54t39 -51.5q18 -21 18 -66 q0 -79 -52 -190t-132.5 -192.5t-157.5 -81.5q-25 0 -45 8q-73 24 -100.5 85t-28.5 150zM707 270q0 -40 24 -53q9 -6 21 -6q58 0 147 184q30 53 46 108t16 89q0 31 -13 37q-32 0 -80 -52t-90 -118q-71 -125 -71 -189z" />
<glyph unicode="&#x26;" horiz-adv-x="1339" d="M-6 295q0 85 46.5 176.5t123 175t171.5 152t185 104.5q-149 123 -149 234q0 57 39 109t110.5 96t173 79.5t224.5 59.5q40 8 100 8q66 0 135 -13.5t125.5 -40.5t95 -70t43.5 -97q-65 -47 -98.5 -67.5t-67.5 -31.5t-75.5 -13.5t-106.5 -2.5q-43 55 -43 82q0 23 23 39.5 t75 40.5q-91 -12 -183.5 -25.5t-177 -36.5t-148 -67t-68.5 -107l16.5 -16.5t26.5 -22.5q51 -34 147 -34q58 0 110 9t75 15q9 -9 11.5 -20t3.5 -25.5t3 -30.5q4 -14 23 -32t26.5 -27t7.5 -31q-125 -28 -327 -126.5t-352 -225.5t-150 -242q9 -77 143 -77q77 0 168 30t169 87 t118 134q-108 -61 -162 -67q-14 9 -14 24q0 5 5 26t5 32t-8 16q-27 13 -27 41q0 15 7 31t12 22q38 19 118.5 48.5t158.5 52.5t166 39t159 16q73 0 123 -23q19 -10 25 -33t14 -67q15 -15 25 -24.5t17 -23.5t7 -34q-73 -25 -158.5 -32t-204.5 -7q-21 -118 -129.5 -230.5 t-260.5 -183.5t-292 -71q-132 0 -221 65q-137 92 -137 234z" />
<glyph unicode="'" horiz-adv-x="307" d="M39 1038q2 46 5.5 79t20 87t46.5 109q21 40 47.5 117.5t45 116.5t42.5 48q44 -6 67 -52t23 -120q0 -89 -31 -178t-91 -150t-136 -61q-15 0 -39 4z" />
<glyph unicode="(" horiz-adv-x="516" d="M-10 299q0 101 28.5 231t90.5 281q111 270 262.5 471t234.5 207q27 0 47.5 -19t20.5 -43q-1 -10 -86 -135.5t-159 -251.5t-124 -258q-110 -295 -110 -460q0 -63 9.5 -96.5t35.5 -100.5q4 -16 4 -23q0 -37 -43 -68.5t-88 -31.5q-43 2 -83 81.5t-40 215.5z" />
<glyph unicode=")" horiz-adv-x="614" d="M39 84q2 9 66.5 106.5t107 163t100.5 170t95 205.5q61 164 85.5 272.5t24.5 188.5q0 62 -12 105t-33 91q-4 18 -4 23q0 39 43 69.5t88 30.5q26 -2 54.5 -35.5t48.5 -100t20 -161.5q0 -222 -119 -512q-72 -175 -168 -331t-185 -249t-145 -97q-25 0 -46 19t-21 42z" />
<glyph unicode="*" horiz-adv-x="1034" d="M446 1323q0 10 11 19.5t18 13.5l262 -39l-162 174q13 1 31.5 8t18.5 23q0 29 15.5 37t25.5 8l122 -211l33 237q4 -3 13 -7.5t18 -4.5q16 0 25 14q5 11 20 11q10 0 19.5 -4t13.5 -7l-80 -241l221 198q0 -7 7.5 -18.5t27.5 -11.5q25 0 31 -17t6 -28l-260 -164l268 14 q-4 -4 -11 -14t-7 -17q0 -11 12 -14q16 -6 16 -14q0 -11 -10.5 -20t-17.5 -13l-265 20l154 -155q-11 -3 -28 -12.5t-17 -26.5q0 -19 -16 -26.5t-27 -8.5l-115 199l-31 -226q-4 4 -12.5 10.5t-21.5 6.5q-15 0 -25 -17q-11 -16 -24 -16q-8 0 -17.5 5.5t-13.5 8.5l84 224 l-217 -199q0 22 -5 30.5t-24 8.5q-17 0 -22 12.5t-5 40.5l236 150l-272 -17q5 6 12.5 18t7.5 23q0 9 -10 17q-13 10 -13 18z" />
<glyph unicode="+" horiz-adv-x="811" d="M55 578q10 12 25.5 35.5t15.5 45.5q0 9 -4 17q-6 15 -6 26q0 27 17.5 46t29.5 26l332 19q17 39 47.5 107l61 136t47.5 107q8 8 27 20.5t44 12.5q24 0 45 -21q8 -8 27 -8q12 0 25.5 3t19.5 5l-156 -344l336 37q-10 -9 -25.5 -30.5t-15.5 -47.5q0 -8 4 -20q0 -27 -8 -46 t-14 -28l-338 -31l-148 -350q-8 6 -24.5 14t-34.5 8q-8 0 -16 -4q-42 -24 -80 -24q-7 0 -16.5 2.5t-12.5 3.5l141 326z" />
<glyph unicode="," horiz-adv-x="356" d="M-72 -266q0 21 27 46t71.5 59t69.5 60.5t25 49.5q0 26 -35 45q-25 15 -40 46.5t-15 63.5q0 41 18 68q25 38 54 61t61.5 33t71.5 10q52 -2 83.5 -25.5t42.5 -39.5q23 -40 23 -92q0 -89 -61.5 -179t-156.5 -151t-183 -61q-28 0 -56 6z" />
<glyph unicode="-" d="M-27 618q0 24 27 46q23 17 23 55q1 9 1.5 17.5t0.5 37.5l651 86q0 -10 2 -24t2 -21q0 -19 -16 -41q-19 -21 -19 -43q0 -4 1.5 -10.5t2.5 -13.5t1.5 -13t0.5 -18l-676 -111q0 19 -0.5 30t-1.5 23z" />
<glyph unicode="." horiz-adv-x="430" d="M39 129q0 49 29 96.5t77 75.5q51 33 107 33q38 0 69.5 -17t45.5 -47q12 -24 12 -55q0 -49 -28.5 -95.5t-78.5 -76.5q-49 -33 -106 -33q-38 0 -68.5 17t-46.5 47q-12 24 -12 55z" />
<glyph unicode="/" horiz-adv-x="627" d="M-96 -219q66 174 126.5 323t92.5 223.5t109 250.5t110 253q63 147 166.5 370t192 390.5t104.5 167.5q14 -4 35 -4q14 0 34 4t31 4q19 0 31 -4l-901 -2019q-26 0 -40 -1.5t-28.5 -3t-15.5 -1.5q-14 0 -47 47z" />
<glyph unicode="0" horiz-adv-x="922" d="M-16 463q0 147 52 311.5t147 313.5t222 256t267 143q30 8 65 8q95 0 172 -66t121.5 -173.5t44.5 -223.5q0 -39 -6 -76q-18 -145 -85 -312.5t-167.5 -315.5t-220 -238t-238.5 -90q-57 0 -114 25q-132 48 -196 163t-64 275zM223 424q0 -60 10.5 -108t26.5 -62 q40 -37 90 -37q102 0 218.5 152t202.5 364.5t99 358.5q0 48 -17 100.5t-51.5 90.5t-80.5 38q-51 0 -109 -47q-139 -115 -225.5 -267t-125 -304.5t-38.5 -278.5z" />
<glyph unicode="1" horiz-adv-x="639" d="M0 178q43 79 85.5 157.5t84.5 156.5q1 0 -23 -43q39 67 105.5 181t221.5 376.5t263 443.5q20 8 37 8q21 0 43.5 -15.5t30.5 -17.5q8 0 38.5 8.5t49.5 8.5q28 0 35 -23q-125 -245 -260 -492.5t-195 -355.5q-24 -44 -87 -169.5t-121.5 -241t-86.5 -172.5q-58 7 -75 21.5 t-25 42t-23 40.5q-13 11 -41 20t-42.5 22t-14.5 44z" />
<glyph unicode="2" horiz-adv-x="1167" d="M14 123l54 57q113 142 239 260.5t245 211t256 191.5t196 150q73 64 73 123q0 20 -6 32.5t-10 16.5q-47 27 -96 27q-69 0 -123 -35.5t-158.5 -121t-165.5 -109.5q-16 14 -21 39t-5 59q0 23 -5 29q-6 13 -38.5 31t-32.5 49q53 39 121 94.5t113 88t103 59.5t134 48 q58 17 106 17q71 0 134.5 -26t111.5 -72t75 -106.5t27 -121.5q0 -93 -55 -170q-33 -49 -111.5 -107.5t-284 -203t-314.5 -237.5t-136 -163q47 3 130 7t159 4q158 0 311 -31q13 -12 13 -31q0 -11 -3 -27.5t-3 -17.5q0 -12 8 -20q30 -32 30 -70q0 -27 -16 -45q-64 1 -178 3 l-228 4t-178 3q-49 -1 -135.5 -3l-173 -4t-135.5 -3q-12 10 -12 21q0 5 4 15t4 19q-2 6 -8 17t-10.5 23t-4.5 26z" />
<glyph unicode="3" horiz-adv-x="1094" d="M-6 256q0 70 39.5 134.5t106 107.5t141.5 55q26 -8 26 -39q0 -17 -0.5 -28t-1.5 -25q3 -8 28 -25t25 -30q0 -5 -4 -13q-93 -45 -137.5 -77.5t-44.5 -86.5q35 -39 147 -39q107 0 225 35.5t208 106.5t106 168q0 76 -49.5 118t-123.5 57t-161 15q-4 8 -4 21q0 12 9.5 27 t11.5 24q0 8 -5.5 22.5t-5.5 20.5q0 10 7 16q52 20 158 71t211.5 132.5t105.5 159.5q0 20 -11 43q-27 30 -79 30q-50 0 -121 -25t-167 -73.5t-169 -87.5q-23 20 -23 43q0 7 4.5 27.5t4.5 44.5q-4 8 -18 14.5t-23 16.5t-9 30q120 91 211 142.5t191 76.5q96 25 149 25 q54 0 79.5 -17t90.5 -71q94 -60 119 -195q0 -66 -51 -158.5t-137.5 -167.5t-188.5 -96q16 -8 67.5 -28.5t83 -42t55 -61.5t30.5 -103q0 -92 -55.5 -191.5t-173 -187.5t-287.5 -139q-50 -15 -123.5 -25t-138.5 -10q-195 0 -256 76q-72 88 -72 182z" />
<glyph unicode="4" horiz-adv-x="995" d="M-8 467q0 13 15.5 32.5t15 28t-10.5 27.5t-10 27q0 14 16 30q64 75 193 211.5t195 186.5q127 95 210.5 154.5t150.5 100t135.5 81t219.5 135.5q26 12 37 12q12 0 18 -6t16 -20.5t17 -16.5q6 0 29 6t35 6q24 0 26 -30l-409 -736q82 -8 223 -8q6 -6 6 -14q0 -12 -16.5 -38 t-16.5 -48q9 -20 24 -34t15 -22q0 -9 -8 -22l-334 -4l-241 -512q-26 0 -43 9.5t-30.5 25t-20.5 20t-29 6.5t-34 9.5t-13 29.5l186 410q-66 -6 -174 -15.5t-133 -9.5q11 2 15 3t4.5 0.5t-97 -20l-162.5 -32.5q-20 20 -20 37zM291 676q16 0 176 12q27 2 104 6t79.5 4.5 t15.5 1.5l262 469q-63 -48 -175 -131.5t-132 -97.5q-26 -17 -143 -111.5t-187 -152.5z" />
<glyph unicode="5" horiz-adv-x="1155" d="M-4 254q17 52 51.5 92.5t81.5 71t100 47.5q21 0 71 -12.5t81 -12.5q-12 -14 -51.5 -51.5t-56.5 -55.5t-30.5 -44.5t-13.5 -59.5q0 -10 4 -34q45 -19 109 -19q88 0 179 39t169.5 103.5t124 134t45.5 127.5q0 35 -14 57q-42 60 -116 88.5t-163 28.5q-81 0 -172 -27 q-14 8 -18 20.5t-4 32.5q0 17 -4 25q-4 9 -28 25t-24 32q9 33 195.5 270t230.5 285q158 0 336 10q58 0 116.5 5.5t76.5 5.5q28 0 98 -6q29 -4 29 -37q0 -30 -29 -62q-4 -4 -4 -10q0 -13 33 -47t33 -47q0 -19 -56 -19q-179 0 -289 -0.5t-256 -1.5l-213 -313q139 0 245 -37.5 t165 -109t59 -166.5q0 -131 -106 -281q-62 -93 -169 -163t-231 -106t-239 -36q-152 0 -249 65.5t-97 192.5z" />
<glyph unicode="6" horiz-adv-x="897" d="M-14 387q0 81 24 168t69 173.5t105 166.5q68 91 190.5 222t259.5 244.5t238 154.5q18 4 19 4q13 0 20.5 -19.5t18.5 -25.5q12 -5 47 -5q48 0 61 -20q-46 -35 -144 -106t-164 -123.5t-135.5 -123t-109.5 -134.5q99 32 185 32q102 0 175 -43.5t112.5 -124.5t39.5 -186 q-8 -107 -71.5 -220t-163.5 -211t-217.5 -157t-222.5 -59q-121 0 -205 80q-131 123 -131 313zM195 338q0 -78 65 -107q32 -4 47 -4q86 0 171 41t153.5 110.5t109.5 151t45 162.5q0 46 -36 94q-29 35 -127 35q-63 0 -131 -14q-32 -6 -57 -26t-39 -39.5t-28 -44.5t-18 -25 q-6 0 -8 61q-76 -154 -111.5 -242.5t-35.5 -152.5z" />
<glyph unicode="7" horiz-adv-x="713" d="M10 106q2 0 70 127q88 163 196 333.5t226.5 346.5t175.5 256.5t84 118.5l-569 -53q-17 14 -17 35q0 4 5 27t5 38q-2 10 -15 25t-13 29q0 12 4 22q37 16 83.5 25.5t98.5 15t94.5 7t106.5 3.5q209 11 235 11q48 0 238 -13q4 -32 16 -57q2 -5 22.5 -20.5t20.5 -24.5 q0 -2 -4 -10q-35 -45 -102.5 -135.5t-215.5 -297t-288.5 -418.5t-233.5 -378q-12 -23 -32.5 -65t-30.5 -62q-20 0 -37 13.5t-29 28.5l-20 25q-1 1 -37.5 14.5t-36.5 32.5z" />
<glyph unicode="8" horiz-adv-x="1008" d="M-2 266q0 134 93 288t267 284q-16 77 -31 141.5t-23.5 113t-8.5 89.5q0 103 63 207q81 132 267 157q78 0 150.5 -34t119.5 -95.5t49 -138.5q14 6 51 33.5t53.5 39t36.5 15.5q33 -52 33 -147q-20 -18 -59 -50.5t-58 -48.5q5 -16 8.5 -38t4.5 -33q-6 -10 -32 -30t-36 -30 q-6 -5 -18 -22.5t-23.5 -29t-27.5 -13.5q-12 29 -15 98q-33 -8 -60.5 -25.5t-55 -39.5t-70 -55.5t-76.5 -53.5q10 -55 28 -95.5t60.5 -117.5t62 -130t19.5 -110q0 -42 -12 -88q-40 -142 -157 -234.5t-269 -92.5q-61 0 -115 14q-107 23 -163 96t-56 176zM162 268 q0 -91 125 -118q20 -5 37 -5q79 0 131.5 73.5t52.5 180.5q0 149 -100 275q-22 -31 -77 -101.5t-87 -116.5t-56.5 -95.5t-25.5 -92.5zM500 1188q0 -70 30 -201l263 193q-12 99 -45 140t-103 56l-45 -4q-100 -52 -100 -184z" />
<glyph unicode="9" horiz-adv-x="848" d="M6 920q0 95 53.5 204.5t164 203.5t270.5 140q30 11 75 11q90 0 175.5 -48t139.5 -129t54 -172q0 -11 -4 -45q-26 -158 -87.5 -280t-141 -217t-211.5 -232q-31 -36 -85.5 -97.5t-108.5 -117t-112 -99.5t-98 -52q-23 32 -34.5 49.5t-22 35.5t-23.5 48l502 539 q-161 -29 -246 -29q-72 0 -122.5 21.5t-84.5 75t-49 142.5q-4 30 -4 48zM205 930q2 -56 43 -82.5t106 -26.5q70 0 148.5 25t122.5 57q4 4 10 4q4 0 4 -37q3 6 43.5 81t54 111t13.5 73q0 61 -48 141q-38 29 -98 29q-27 0 -72 -11q-126 -41 -196.5 -126t-130.5 -238z" />
<glyph unicode=":" horiz-adv-x="479" d="M39 170q0 48 29.5 97t76.5 77q48 33 105 33q39 0 70 -16.5t45 -45.5q12 -24 12 -55q0 -49 -28 -96t-77 -78q-49 -33 -108 -33q-82 0 -113 62q-12 24 -12 55zM170 649q0 49 28.5 98t75.5 78q52 31 107 31q84 0 115 -61q12 -26 12 -56q0 -49 -28.5 -96.5t-76.5 -77.5 q-48 -33 -106 -33q-84 0 -115 62q-12 24 -12 55z" />
<glyph unicode=";" horiz-adv-x="492" d="M-61 -219q0 21 22 42t74 63t74 65.5t22 46.5q0 27 -33 45q-29 16 -43 45t-14 64q0 41 20 69q70 105 187 105q53 -2 83.5 -26t41.5 -40q24 -44 24 -94q0 -66 -37.5 -136t-98 -127.5t-131.5 -92.5t-138 -35q-29 0 -53 6zM170 649q0 49 28.5 98t75.5 78q52 31 107 31 q84 0 115 -61q12 -26 12 -56q0 -49 -28.5 -96.5t-76.5 -77.5q-48 -33 -106 -33q-84 0 -115 62q-12 24 -12 55z" />
<glyph unicode="=" horiz-adv-x="897" d="M-14 373q0 23 26 45q23 16 23 55q1 9 1.5 18t0.5 37l811 111q0 -10 2 -24t2 -21q0 -20 -16 -41q-19 -21 -19 -43q0 -4 1.5 -10.5t2.5 -13.5t1.5 -13t0.5 -18l-835 -136q0 19 -0.5 30t-1.5 24zM-2 692q0 25 27 45q22 17 22 56q1 9 1.5 17.5t0.5 37.5l811 110q0 -8 2 -23 t2 -22q0 -19 -16 -41q-19 -22 -19 -43q0 -4 1.5 -13l3.5 -21t2 -21l-836 -135q0 18 -0.5 29t-1.5 24z" />
<glyph unicode="?" horiz-adv-x="1094" d="M80 113q0 31 13 67t37.5 66t57.5 51q53 33 111 33q86 0 121 -66q12 -27 12 -57q0 -53 -29 -102.5t-79.5 -82t-110.5 -32.5q-87 0 -121 65q-12 29 -12 58zM319 569q0 2 5 17q16 37 32 63t36.5 54.5t47.5 64.5q55 73 130.5 125t167 95t161.5 75.5t100 58.5q66 57 66 133 q0 49 -20.5 87t-34.5 53q-66 59 -160 59q-96 0 -204 -66t-210 -194q-45 16 -45 55q0 15 6 41t6 37q0 12 -6.5 18.5t-16.5 13t-20 16.5t-10 22q0 11 6 26q97 92 157.5 136.5t115.5 64.5t147 33q70 8 101 8q136 0 232.5 -53t147 -141.5t50.5 -186.5q0 -172 -127 -299 q-32 -33 -102.5 -62.5t-138.5 -56t-141.5 -68.5t-138.5 -108q-43 -67 -82 -149t-57 -125q-12 -4 -18 -4q-16 0 -25 12.5t-18.5 35t-19 36t-23.5 16.5q-97 23 -97 57z" />
<glyph unicode="A" horiz-adv-x="1044" d="M-12 113q0 55 25.5 110.5t78.5 140.5t68 115q6 9 6 23t-6.5 28t-17.5 31t-25 39q56 10 102.5 22t61.5 17q12 21 41.5 66.5t80.5 113.5q251 322 343.5 437.5t149.5 174t132 113.5q9 0 47.5 -7.5t38.5 -10.5q1 0 29.5 7t42.5 7t14 -8l-244 -1462q-17 0 -103 -15t-87 -16 q-45 102 -45 190q0 54 13.5 119t45.5 187q-79 -12 -175 -40t-181 -40q-24 -48 -56 -103.5t-86 -139t-106.5 -145t-95.5 -87.5q-9 22 -41 53t-41.5 43.5t-9.5 36.5zM567 715l248 39l125 506z" />
<glyph unicode="B" horiz-adv-x="1106" d="M0 123q28 125 99.5 314.5t156.5 380.5t132.5 289.5t70.5 145.5q-34 -6 -60 -13.5t-81.5 -28.5t-77.5 -29q-2 11 -4.5 21.5t-2.5 19.5q0 19 7 45.5t7.5 34.5t-3.5 28t-4 33q158 76 246 102t264 62q52 8 88 8q66 0 143 -15.5t142 -44.5t113 -72.5t62 -96.5q19 -76 19 -136 q0 -93 -39 -154.5t-103.5 -100.5t-155.5 -72t-177 -64q119 -89 181 -166t62 -168q0 -72 -41 -149q-59 -112 -194.5 -189t-300.5 -77q-151 0 -291 63q-16 7 -18 33t-11 31q-7 -14 -34.5 -54t-42 -62.5t-21.5 -45.5q-26 4 -34.5 17t-17 30t-32.5 27q-12 10 -29.5 28.5 t-17.5 24.5zM283 289q42 43 91.5 70.5t88.5 27.5q28 0 45 -10q-2 -13 -14.5 -23.5t-41 -28t-34.5 -24.5q-17 -21 -17 -33q0 -19 35 -39q117 0 207.5 32.5t141.5 103t51 178.5q-40 51 -81 76.5t-113.5 38t-188.5 12.5q-56 -114 -92.5 -195.5t-77.5 -185.5zM535 897 q170 17 302 67.5t204.5 126t72.5 160.5q-15 29 -55 52t-89 35t-96 12q-21 0 -51 -4q-29 -6 -62 -21t-44 -18z" />
<glyph unicode="C" horiz-adv-x="922" d="M-8 442q0 82 23 176.5t76.5 201t137.5 220.5q378 504 693 529q33 0 91.5 -22.5t63.5 -22.5q36 4 45 8q45 -41 72 -55q0 -82 -24 -143.5t-62 -109.5t-100 -109t-105 -109q-18 3 -38.5 9.5t-45 20t-43.5 23.5q8 54 31 100t46 90.5t32 98.5q-56 -10 -133.5 -56t-175 -155 t-189.5 -277q-42 -75 -76 -148t-56 -147.5t-22 -140.5q0 -81 39 -145q47 -76 113 -76q53 0 114.5 47t120 118t130.5 170t86 117q7 7 10 7t8 -2.5t12 -2.5q0 -8 -2 -29t-2 -32q0 -21 4 -29q4 -12 4 -28q0 -60 -41 -166t-109.5 -206t-144.5 -144q-46 -33 -129 -33 q-66 0 -139.5 23t-138 68t-102.5 105q-74 100 -74 256z" />
<glyph unicode="D" horiz-adv-x="1229" d="M-27 115l473 1173q-32 -12 -89 -43.5t-95 -38.5q-29 81 -29 170q40 25 109.5 70t102.5 62t85 31t132 22q48 6 94 6q130 0 235 -41.5t177.5 -115.5t111.5 -174t39 -222q0 -99 -23 -185q-47 -178 -187.5 -368t-408 -325.5t-653.5 -135.5q-36 84 -74 115zM285 246 q200 22 332 87t206 149t119 179t72 154q49 105 49 205q0 128 -86 210.5t-270 82.5z" />
<glyph unicode="E" horiz-adv-x="1081" d="M4 66q5 118 33 218t70 182.5t98 172.5t69 115q-7 24 -24.5 73.5t-22.5 59.5q35 10 72 18t61 13q31 53 45.5 81.5t73 144.5t68.5 134q-16 2 -28 4t-20.5 4.5t-17.5 7.5q-27 20 -36 52.5t-13 76.5q82 25 175 40.5t200.5 26.5t224.5 23.5t234 26.5q42 0 49.5 -11.5 t19.5 -53.5q27 -14 35.5 -25.5t16.5 -32.5t18 -31q-15 -3 -97 -23.5t-163 -40t-176 -38t-191 -33.5l-145 -299l440 37q19 -18 19 -55q0 -14 4 -21q4 -9 22.5 -40t18.5 -52q-156 -43 -329.5 -79.5t-275.5 -36.5q-41 -65 -74.5 -117t-69.5 -114t-62.5 -124.5t-38.5 -120.5 q42 7 129.5 24t138.5 26.5t116 16.5t124 7q104 0 182 -27q14 -31 15.5 -81.5t6.5 -73.5l-942 -144q-4 65 -53 89z" />
<glyph unicode="F" horiz-adv-x="1020" d="M-2 139q12 37 24 68t30 75t40.5 97t46.5 115q23 53 39.5 83t36 61t29.5 50q2 3 4 10t2 25q0 45 -27 102q12 3 15 3.5t4 0.5q-4 -1 -8.5 -2t-8.5 -2l109 23q24 44 66 123t83.5 157.5t65.5 122.5q-12 4 -31.5 5t-28.5 6q-21 18 -24 39t-8 94q130 22 265 51t222 49.5 t170.5 33.5t155.5 13q66 0 133 -12q3 -8 11 -23.5t30 -48.5q15 -32 19.5 -42t7 -24.5t10.5 -48.5q-206 -11 -355.5 -28.5t-218.5 -34t-78 -25.5q-41 -54 -116.5 -165t-122.5 -207l418 47q16 -15 19.5 -38t6.5 -46q42 -79 47 -98l-600 -101l-311 -659q-62 18 -117 66.5 t-55 84.5z" />
<glyph unicode="G" horiz-adv-x="1118" d="M-14 418q0 149 57 289q90 225 199 383.5t271.5 274t391.5 181.5q16 4 35 4q10 0 60 -2t96 -2q14 -25 24 -49h84q27 -64 27 -115q0 -58 -27.5 -98t-95.5 -110t-107 -132q-61 13 -86 43.5t-59 112.5q39 34 74 131q-95 -5 -180.5 -53.5t-173 -144.5t-187.5 -246 q-62 -87 -109 -217.5t-47 -245.5q0 -96 37 -160q45 -82 136 -82q70 0 147 47.5t128.5 122t51.5 148.5q0 32 -8 53q-19 -4 -62.5 -9.5t-68 -10.5t-59.5 -15q14 149 149.5 215t321.5 66q115 0 198 -19q11 -37 19.5 -63.5t13 -55t4.5 -71.5q-29 1 -52.5 1.5t-58.5 0.5 q-79 0 -141 -17q-14 -34 -47.5 -136t-62 -170t-72.5 -127t-107 -93q-97 -55 -241 -55q-128 0 -242 44.5t-164 119.5q-67 87 -67 262z" />
<glyph unicode="H" horiz-adv-x="1270" d="M12 102q29 77 62.5 155.5t63 138t68.5 133t81 151.5q-8 25 -23 78.5t-20 79.5q42 15 78 22.5t53 9.5q33 42 80.5 135.5t112 217t149.5 258.5q6 2 24.5 9t30.5 7q18 0 39 -8q18 3 43 8.5t49.5 10.5t40.5 5q19 0 23 -4l-297 -620l438 37q38 81 103.5 195t137 225t111.5 159 q4 4 19 4q20 0 48.5 -3.5t31.5 -4.5q5 2 19.5 9.5t35.5 7.5q22 0 39 -5l-707 -1517q-22 7 -36.5 15.5t-25 18.5t-20.5 15q-9 5 -47 14t-60.5 18.5t-23.5 22.5q14 88 41 162t74.5 166.5t80 152.5t60.5 128q-3 0 -115.5 -9.5t-210 -21t-106.5 -16.5q-7 -5 -29.5 -45.5 t-64 -126t-87.5 -182t-153 -322.5q-24 2 -44.5 12.5t-45.5 30t-35 26.5q-5 4 -44.5 19t-41.5 28z" />
<glyph unicode="I" horiz-adv-x="541" d="M-20 119q58 154 98.5 258.5t61 150.5t47 106t57.5 132q57 133 152 304.5t181.5 304t104.5 132.5q24 -4 39 -4q17 0 49 4t47 4q25 0 37 -4l-692 -1509q-72 7 -101.5 29.5t-80.5 91.5z" />
<glyph unicode="J" horiz-adv-x="909" d="M-6 446q0 55 16.5 96.5t53.5 67t96 29.5q37 -65 57.5 -142t37 -132.5t44.5 -87.5t88 -37q79 116 136 212t113.5 205.5t113.5 218t129 234.5q51 92 131 239t100 160q27 19 86 19q47 0 84 -15t37 -40q-69 -201 -143.5 -354.5t-243.5 -459.5q-174 -313 -277.5 -464 t-130.5 -164q-45 -23 -123 -23q-97 0 -187.5 36.5t-127.5 98.5q-90 169 -90 303z" />
<glyph unicode="K" horiz-adv-x="1266" d="M16 129q3 16 62.5 146.5t146 312t228.5 473.5q135 272 169.5 339t57.5 87q31 22 127 22q42 0 96 -6l-274 -567l897 537l47 -27q18 -45 18 -74q0 -5 -8 -65l-821 -572q59 -88 103.5 -156t93 -149t97 -177t68.5 -169q-42 -2 -67.5 -11t-72 -30.5t-73.5 -24.5l-383 611 q-34 -66 -62.5 -121.5t-103.5 -207.5t-147 -302q-29 3 -65.5 37t-40.5 37q-12 9 -35 16t-38.5 16t-19.5 25z" />
<glyph unicode="L" horiz-adv-x="1069" d="M16 86q2 25 101.5 277t229.5 531t261 488q17 26 32 51l36 60q17 4 34.5 9.5t38 9.5t37.5 6q23 2 44 8t36 6q21 0 39 -4l-604 -1299q2 0 62 7.5t133.5 14t187 12t283.5 5.5q22 -80 29.5 -113.5t7.5 -93.5q-48 -12 -114.5 -22.5t-167.5 -20.5t-184.5 -14t-162.5 -4 q-197 0 -318 23q-19 52 -41 63z" />
<glyph unicode="M" horiz-adv-x="1573" d="M20 152q34 90 67 157.5t103 191t222 386.5q69 120 155 249.5t151 221t91 127.5q30 16 63 16q13 0 19.5 -0.5t14.5 -1.5t17 -2t17 -2q11 0 49.5 9t61.5 9q14 -21 14 -63q0 -93 -49 -285t-156 -569q44 40 82 86t71 93.5t65 94t61 78.5q49 66 91.5 115.5t122.5 140 t132.5 150t91.5 110.5q58 70 125 70h72q8 2 35.5 8t50 10t32.5 4q27 0 39 -10l-596 -1485q-61 0 -135.5 24.5t-109.5 51.5l471 1000l-820 -1100q-83 14 -123.5 81t-50.5 109q19 75 56.5 195.5t77.5 251t71 245.5t43 197l-633 -1134q-27 2 -92.5 63.5t-69.5 106.5z" />
<glyph unicode="N" horiz-adv-x="1204" d="M4 88q22 264 340 924q53 107 110 217t93 180q41 44 98 56t154 12l73 -930q33 57 81 179.5t114.5 287.5t135 297.5t143.5 222.5q22 0 46 -12.5t31 -14.5q30 -3 52 -5.5t34 -6.5l-600 -1452q-75 0 -138.5 24.5t-74.5 57.5q-22 72 -35 168t-23 242t-17.5 327.5t-8.5 188.5 l-428 -1063q-45 8 -106 49q-4 3 -26.5 11t-34 16t-13.5 24z" />
<glyph unicode="O" horiz-adv-x="1167" d="M8 453q0 152 66 320.5t184.5 326t269 269.5t310.5 149q47 10 86 10q87 0 162 -40.5t131 -109.5t86 -155.5t30 -173.5q0 -40 -6 -76q-23 -148 -105.5 -317.5t-207.5 -318.5t-270.5 -238t-290.5 -89q-73 0 -142 25q-155 46 -229 155.5t-74 262.5zM305 416q0 -136 27 -150 q42 -22 94 -22q105 0 217.5 100t211 256.5t162.5 316.5t77 271q-38 67 -65 99t-75 32q-30 0 -63 -14q-169 -64 -286 -174t-182.5 -239.5t-91.5 -251.5t-26 -224z" />
<glyph unicode="P" horiz-adv-x="1180" d="M16 90l82 246l426 872q-45 -10 -117 -29.5t-135 -25.5q-4 10 -4 29q0 11 4 30t4 27q0 13 -4 30t-4 25q0 17 4 27q75 45 139 71.5t131.5 44.5t174.5 38q69 14 149 14q152 0 280 -56.5t206 -163t78 -249.5q-5 -85 -74.5 -174.5t-177.5 -164.5t-226 -118t-213 -43 q-172 0 -213 133q-39 -98 -105.5 -234.5t-209.5 -422.5q-28 0 -46.5 7.5t-39 21.5t-27.5 18q-8 6 -29 11.5t-34 13.5t-19 22zM661 860q31 8 87 8q-15 -14 -49 -31.5t-49 -34t-15 -46.5q175 5 313 56.5t215.5 128.5t77.5 149q-8 35 -64.5 70.5t-139 60t-163.5 24.5 q-39 0 -75 -6q-47 -97 -125 -254q-77 -156 -78 -156q-65 -1 65 31z" />
<glyph unicode="Q" horiz-adv-x="1106" d="M10 420q0 231 172 502q117 186 183 272.5t160 151t247 108.5q68 21 127 21q85 0 154.5 -34.5t119.5 -98t75.5 -144.5t25.5 -172q0 -59 -8 -104q-27 -160 -73 -271.5t-96 -180.5t-133 -153t-104 -108l254 -176v-47q0 -26 -8 -43t-31 -47q-46 -41 -94 -54q-37 40 -89.5 77 t-99 69t-96.5 82q-54 -12 -107 -24.5t-105.5 -22.5t-89 -14.5t-75.5 -4.5q-112 0 -181 56.5t-105 197.5q-23 72 -23 162zM248 379q0 -67 28 -106.5t82 -39.5q25 0 56 9q-52 55 -52 104q0 34 24.5 56t64.5 24q29 0 108.5 -23.5t97.5 -27.5q27 35 127 161t149.5 198.5 t82.5 157t33 173.5q0 93 -37 182q-31 21 -90 21q-46 0 -80 -11q-149 -52 -285.5 -209t-222.5 -348.5t-86 -320.5z" />
<glyph unicode="R" horiz-adv-x="1094" d="M-6 102l487 1102q-89 -6 -145.5 -17t-142.5 -36q1 27 9.5 92.5t8.5 106.5q90 53 163.5 79.5t178.5 45.5q79 14 164 14q119 0 233 -24t199.5 -76t107.5 -129q17 -67 17 -119q0 -208 -184 -329t-465 -167q19 -39 79.5 -97.5t131.5 -124.5t124 -133t70 -134q6 -9 6 -21 q0 -15 -12.5 -36t-15.5 -33q-8 -21 -17.5 -45.5t-21.5 -45.5l-537 533l-219 -496q-58 11 -135 49q-11 6 -45.5 15.5t-38.5 25.5zM535 825q178 56 254.5 84t143 66.5t105 92.5t39.5 120q-32 57 -180 57q-25 0 -79 -2t-83 -2z" />
<glyph unicode="S" horiz-adv-x="1167" d="M-33 166q0 68 43.5 138t119.5 124t161 74q26 -16 35.5 -30t17.5 -46q-61 -28 -105 -76.5t-57 -113.5q15 -25 72 -25q115 0 315 72q86 26 152.5 62t113 95.5t54.5 137.5q-5 30 -91.5 54t-213.5 63t-204.5 102t-78.5 168q0 83 79.5 172.5t252 167.5t430.5 116q69 9 86 9 q81 0 130 -41.5t77 -137.5q-37 -75 -128 -130.5t-218 -63.5q-6 11 -26.5 32.5t-20.5 36.5q0 26 47 62q-64 -14 -138 -32.5t-142 -43.5t-118.5 -65.5t-56.5 -94.5q12 -29 98 -48t203.5 -46t167.5 -61q137 -94 137 -213q0 -96 -108 -258q-57 -84 -194 -169.5t-303.5 -141.5 t-299.5 -56q-102 0 -166 33q-123 62 -123 174z" />
<glyph unicode="T" horiz-adv-x="700" d="M10 1257q0 5 4 21q304 65 530 98.5t580 75.5q15 0 29.5 -11.5t42.5 -23.5q12 -21 25 -43t21.5 -42t8.5 -34q-126 -28 -207 -48.5t-174 -47.5t-178 -49q-12 -21 -45 -92.5t-96 -231.5q-28 -70 -81 -197t-86.5 -204.5t-80 -187t-102.5 -250.5q-25 3 -65.5 35t-47.5 36 q-20 8 -37 15.5t-27 16t-10 16.5l422 1024q-91 -6 -166.5 -16t-208.5 -38q-14 13 -18 33t-4 59q0 17 -5.5 31.5t-10.5 23t-9 16.5t-4 15z" />
<glyph unicode="U" horiz-adv-x="995" d="M55 315q0 106 40 238t105 272.5t114 230.5t161 292q27 16 61 25t54 9q9 0 34 4.5t46 4.5q22 0 43 -7l-373 -847q-35 -81 -35 -150q3 -95 57 -131q20 -6 35 -6q94 0 207.5 154.5t239.5 399.5t219 423.5t125 189.5q125 39 170 39q43 0 43 -33q0 -18 -17 -53 q-23 -45 -164 -352t-263 -522.5t-266.5 -360.5t-293.5 -145q-30 0 -57 6q-285 48 -285 319z" />
<glyph unicode="V" horiz-adv-x="897" d="M33 68q0 141 67.5 464t116.5 472q18 57 48.5 163.5t47.5 153.5t33 70q15 26 58 41.5t92 15.5t71 -14l-231 -971q15 8 102 104.5t233 257.5t314 338.5t367 378.5q12 4 41 4q42 0 67 -10q56 -18 56 -68l-1307 -1474q-21 2 -37.5 8.5t-32 16t-30.5 18.5q-13 8 -43.5 15.5 t-32.5 15.5z" />
<glyph unicode="W" horiz-adv-x="1241" d="M-98 137q31 99 81 284t100 347.5t108 301t128 245.5q16 12 41 12q15 0 20.5 -1t20.5 -2t29 -3q7 0 19.5 1.5t25.5 2.5t21 1.5t24 0.5q28 0 35 -10l-356 -850q28 35 71 97t76.5 110.5t75.5 103.5q131 177 252.5 326.5t193.5 228t82 82.5q62 20 99 27q11 0 54 6t75 6 l-273 -764l713 834q12 12 76 12q58 0 88 -8q14 -3 29.5 -6.5t23.5 -7t8 -9.5l-1042 -1411q-28 0 -68 19t-61 32q-12 9 -33 17t-32.5 14.5t-12.5 13.5l172 711l-643 -901q-122 25 -221 137z" />
<glyph unicode="X" horiz-adv-x="1278" d="M-37 125q42 102 185 252.5t313 306.5t170 160q-12 38 -44.5 168t-78.5 354q5 17 22 25t35 11.5t46.5 8t39.5 8.5q6 4 21.5 14.5t29.5 16.5t27 6q39 -158 60.5 -260.5t31.5 -194.5q33 28 161.5 150t189 178t133.5 114.5t110 67.5q96 0 121 -10q21 0 37 -2.5t26.5 -7 t10.5 -8.5q0 -8 -47 -60t-115.5 -121.5t-139.5 -139t-171 -158.5q-104 -94 -165 -156.5t-81 -85.5q12 -43 38.5 -146t60 -252.5t50.5 -273.5q-6 -12 -36 -12q-18 0 -37.5 3t-28.5 5q-13 0 -60 -11.5t-59 -11.5q-11 50 -25 107.5t-31 120.5t-41 155.5t-32 126.5l-600 -575 q-13 0 -20 9.5t-14 24.5t-13 25q-5 7 -41 29.5t-39 38.5z" />
<glyph unicode="Y" horiz-adv-x="725" d="M55 121q30 91 67 195.5t76.5 210.5t67.5 182q-6 18 -22 70.5t-41 147t-53.5 228.5t-51.5 287q5 10 27 10q23 0 63.5 -7t42.5 -7q15 1 26.5 1.5t27.5 0.5q18 0 28 -8l119 -531q66 76 132.5 151.5t174 196.5t173 190.5t108.5 106.5q4 4 10 4q15 0 40 -14.5t34 -17.5 q36 4 119 4l28 -4q-43 -63 -210.5 -250t-323.5 -356t-230 -248q-26 -67 -40 -110t-54 -162t-78 -225.5t-65 -172.5q-59 23 -102 53t-93 74z" />
<glyph unicode="Z" horiz-adv-x="1315" d="M35 137q0 20 8 25l1202 1061l-665 -166q0 21 32.5 74t36.5 67q-4 0 -4 74q0 54 10 59q93 39 190.5 57t295.5 44q142 18 233 18q104 0 164 -18q14 -27 14 -70q0 -31 -8 -49q0 -6 13.5 -55t13.5 -80l-1055 -926q122 21 218 39t144.5 25.5t96.5 7.5t80 -9q17 -4 28 -45.5 t23 -81.5q3 -6 23 -38.5t20 -45.5q0 -11 -8 -16q-163 -11 -330 -24t-338 -26t-261.5 -18.5t-111.5 -5.5q-24 14 -44.5 53t-20.5 70z" />
<glyph unicode="\" horiz-adv-x="836" d="M-10 1780q16 23 27 35t20 12q4 0 31 -3t53 -3l901 -2020q-12 -4 -31 -4q-11 0 -31 4t-34 4q-21 0 -35 -4q-17 0 -102.5 163.5t-192 391t-168.5 373.5q-33 79 -110 254.5t-109.5 250.5t-93 224t-125.5 322z" />
<glyph unicode="_" horiz-adv-x="1155" d="M0 0v104h1229v-104h-1229z" />
<glyph unicode="a" horiz-adv-x="872" d="M-14 197q0 71 35 160.5t126 217.5q128 182 303.5 309.5t354.5 127.5q35 0 72 -6q6 9 24 26t23 27q58 0 96 -4q28 0 40 -8t15 -13l-473 -1034q-9 -6 -20 -6q-8 0 -22.5 4t-24 9t-23.5 11q-11 -2 -40.5 -14t-41.5 -12q-18 0 -18 18q0 36 59 133q-30 -39 -110.5 -87.5 t-135.5 -61.5q-20 -4 -35 -4q-39 0 -83 16.5t-75.5 46.5t-35.5 64q-10 37 -10 80zM199 178q58 2 112.5 31.5t103.5 79.5t86 101.5t93 137.5q165 252 197 322q-122 -17 -262 -137t-235 -275t-95 -260z" />
<glyph unicode="b" horiz-adv-x="848" d="M-10 236q0 85 28 185.5t69.5 195.5t74.5 155q214 394 280 516.5t106.5 196.5t62 108t53.5 74q8 4 14 4q21 0 55 -29t37 -30q29 -9 40 -15t21 -24l-374 -651q193 161 329 161q116 0 170 -120q29 -66 29 -150q0 -68 -22 -142t-79 -164t-153 -183q-110 -121 -252 -222.5 t-272 -101.5q-71 0 -125 35q-92 56 -92 201zM205 217q8 -4 24 -4q73 0 203 108.5t228.5 258.5t99.5 274q-12 12 -33 12q-63 0 -177 -87t-202 -197q-36 -51 -89.5 -159.5t-53.5 -205.5z" />
<glyph unicode="c" horiz-adv-x="836" d="M0 287q0 92 39 205.5t123 229t217 208.5t311 137q38 8 55 8q53 0 96 -24t52 -50q13 11 29 11q34 0 69 -29t51 -61q0 -24 -60 -89.5t-130 -124t-94 -59.5q4 0 -16 5t-25 5l-25 52q-14 4 -34.5 16t-20.5 33q16 28 30 53t36 54t57 61q-111 -19 -238 -142t-215 -280t-88 -252 q0 -49 23 -72q39 -24 88 -24q100 0 209 88t163 203q9 -17 9 -31q-2 -10 -3.5 -15.5t-3 -13l-2.5 -12.5q1 -3 10 -26t9 -50q-24 -86 -84.5 -155.5t-145 -108.5t-169.5 -39q-189 0 -295 166q-27 37 -27 123z" />
<glyph unicode="d" horiz-adv-x="922" d="M-10 201q0 118 65 275.5t190 308.5t301 247t390 96l229 478q23 13 33 16t23.5 5.5t40.5 8.5q16 4 28 4q28 0 49 -7t27 -19l-723 -1626q-16 0 -32.5 9t-32 23t-27.5 23q-57 0 -66 16q3 18 7.5 35.5t12 36.5t14.5 37.5t11 44.5q-225 -236 -368 -236q-107 0 -160 140 q-12 33 -12 84zM215 250q0 -39 14 -55q48 0 111 49t110.5 104t115 141t91.5 111q38 69 103.5 191t81.5 165q-164 -28 -307.5 -158t-231.5 -290.5t-88 -257.5z" />
<glyph unicode="e" horiz-adv-x="891" d="M0 252q0 114 55 247.5t155.5 251.5t243.5 193.5t310 75.5q95 -6 152 -71t57 -154q0 -70 -37 -133q-62 -98 -199 -166q-90 -52 -235 -97.5t-269 -52.5q-18 -65 -18 -84q0 -50 55 -76q24 -10 70 -10q104 0 221 60t178 170q9 -7 9 -64q2 -6 24.5 -25.5t22.5 -27.5 q-24 -85 -104.5 -154.5t-192 -111t-213.5 -41.5q-190 0 -250 127q-35 55 -35 143zM293 547q33 6 133.5 31.5t146.5 39.5q98 37 153.5 77.5t55.5 74.5q0 10 -10 25q-20 26 -76 26q-37 0 -86 -16q-104 -39 -179 -99t-138 -159z" />
<glyph unicode="f" horiz-adv-x="788" d="M43 117q29 59 57.5 117.5t57.5 117.5l-13 -26q-2 -6 -2.5 -7t-1.5 -2q5 0 101.5 184.5t160.5 307.5q-22 -2 -81 -27.5t-93 -25.5q-30 47 -30 73q-2 17 -18 24.5t-28.5 16.5t-13.5 35q124 53 218 76.5t135 30.5q38 99 119.5 230.5t172.5 226t158 94.5q41 0 68 -35l8 -10 q6 4 21 10t34 6q43 -6 69.5 -77.5t26.5 -153.5q0 -55 -13.5 -93t-39.5 -47q-28 0 -60 22t-56.5 70.5t-30.5 114.5q-21 -20 -47 -44.5t-60.5 -67.5t-61.5 -90t-57 -124l207 17l35 -41l37 -29l-4 -55q-3 0 -359 -80q3 0 -239 -485q-29 -60 -69 -143t-71.5 -147.5t-46.5 -96.5 q-25 2 -40 15t-29 34.5t-21 27.5q-4 4 -50.5 22.5t-49.5 33.5z" />
<glyph unicode="g" horiz-adv-x="881" d="M-94 -274q0 59 49 96q21 6 41 6q58 0 98.5 -50.5t73.5 -137.5q86 110 160 272q33 71 62.5 127t70.5 139q-69 -81 -155 -136.5t-161 -55.5q-36 0 -68.5 16.5t-58 53.5t-41.5 96q0 69 31 181t109.5 243t223.5 253t359 197q35 0 89 -7.5t61 -33.5q2 0 18.5 20t26.5 33 q21 0 38 -16t25 -18q17 0 50.5 7t48.5 7q16 0 24 -8q-13 -36 -111.5 -240t-189.5 -387.5t-110 -214.5q-25 -46 -89.5 -189.5t-96 -209t-82.5 -150.5t-91 -115q-46 -34 -108 -34q-67 0 -137 39.5t-115 100t-45 116.5zM195 272q0 -35 14 -57q43 0 131.5 71.5t191 181.5 t167.5 204.5t65 140.5q0 14 -4 21q-8 8 -25 8q-14 0 -30.5 -5.5t-39 -16t-24.5 -11.5q-77 -30 -183.5 -127t-184.5 -213t-78 -197z" />
<glyph unicode="h" horiz-adv-x="848" d="M-63 125q32 67 82.5 183t94.5 215.5t76 167.5t64 130q34 70 122.5 258t129.5 273t88 174t57 94q1 2 5.5 9.5t10.5 13.5t13 6q14 0 27 -19q15 -20 30 -20q8 0 26 6t30 6q36 0 36 -8q7 -3 7 -15q0 -42 -60.5 -169.5t-164.5 -329t-107 -219.5q21 13 88 59t113 67t92 21 q71 0 139 -57q39 -34 39 -88q0 -40 -14.5 -83t-37.5 -94t-51 -114q-144 -365 -254 -596q-18 0 -31 4t-28 13t-21 14.5t-18 15.5q-43 22 -64 40t-24 42q12 31 44 108.5t69 157.5q32 76 59 133t50.5 104.5t48 99.5t49.5 108q-121 -26 -201 -92t-138.5 -165t-146.5 -291 t-145 -302q-31 0 -51.5 12t-34.5 28t-25 29q-21 14 -44 30t-29 40z" />
<glyph unicode="i" horiz-adv-x="479" d="M-16 150q83 174 213 419q45 85 101 185t89 151.5t45 59.5q9 6 21 6q11 0 30 -7t29 -8q12 0 34 8.5t36 8.5q16 0 26 -15q-16 -33 -57 -120.5t-90.5 -198t-73.5 -166.5q-31 -75 -47.5 -117t-42 -108.5t-54 -133.5t-50.5 -116q-14 -4 -19 -4q-27 0 -59.5 23t-53.5 46 q-77 38 -77 87zM516 1194q0 61 33 114t84 72l33 4q84 -14 84 -92q0 -42 -25.5 -89t-65.5 -79t-77 -32q-19 0 -39 10q-27 37 -27 92z" />
<glyph unicode="j" horiz-adv-x="578" d="M-301 -143q0 107 131 129q28 -7 49.5 -61t41 -98.5t59.5 -51.5l577 1169q8 4 23 4q11 0 27 -9t28 -11q15 1 45.5 11.5t44.5 10.5q19 0 39 -20q-119 -256 -216 -477t-164.5 -375.5t-110.5 -247.5t-78 -152q-27 -47 -95 -70.5t-143 -23.5q-112 0 -150 37 q-35 35 -71.5 104.5t-36.5 131.5zM657 1194q0 52 33 112.5t88 102.5q33 14 74 14q40 0 67 -16t29 -43q-8 -58 -45 -116t-93.5 -94t-123.5 -36q-29 28 -29 76z" />
<glyph unicode="k" horiz-adv-x="860" d="M-90 94q21 46 68.5 153t111 249.5t97 217t53.5 120.5q2 0 -9 -17q-9 -18 -12 -25t-4 -10q0 2 48.5 113.5t80.5 183.5t98.5 221t85.5 193q12 8 27 8q13 0 40 -8t40 -8q18 6 52.5 15t64.5 9q24 0 34 -8q-16 -50 -43 -107t-106 -217.5t-129.5 -268t-97.5 -218.5 q29 17 96.5 59.5t134.5 88.5q79 53 148.5 100.5t103.5 71.5q14 -7 14 -41q0 -27 -4 -51q0 -7 17.5 -23.5t35.5 -32t29.5 -27.5t11.5 -22q-115 -61 -176.5 -98.5t-324.5 -202.5q26 -25 84.5 -88t145.5 -170.5t140 -194.5q-3 -11 -77 -12t-99 -8q-5 -2 -32.5 -27.5 t-53.5 -25.5q-39 60 -94 141.5t-85 122.5t-61.5 84.5t-56.5 79.5l-215 -463q-19 0 -31.5 12.5t-28.5 35t-26 28.5t-36.5 15.5t-42.5 21.5t-17 30z" />
<glyph unicode="l" horiz-adv-x="399" d="M-41 104q0 3 4 15q26 70 43.5 114.5t36 87t67.5 139.5t109 216q247 494 379 692q6 6 16 6q14 0 38 -10l24 -10q13 1 41 15.5t43 14.5q16 0 28 -10q-28 -52 -91.5 -176.5t-147 -298t-139.5 -313.5q-39 -98 -85.5 -232t-75.5 -223t-42 -129q-43 2 -96.5 22t-79.5 39 q-11 10 -32.5 16t-30.5 10t-9 15z" />
<glyph unicode="m" horiz-adv-x="1364" d="M-53 90q162 343 243 500q31 64 112.5 240t96.5 190q10 8 19 8t26 -12t25 -12q9 1 34.5 11.5t35.5 10.5q13 0 22 -12q-5 -20 -18 -54.5t-19 -48.5t-10 -41q49 32 99.5 65t100.5 56t93 23q63 0 102 -53q15 -18 15 -58q0 -21 -2 -33.5t-4 -19.5q60 42 178 104t217 62 q57 0 88 -31q49 -49 49 -119q0 -37 -11.5 -77.5t-31 -87.5t-37.5 -91q-54 -141 -112 -290.5t-101.5 -239.5t-69.5 -94q-32 0 -49.5 22.5t-29.5 26.5q-8 5 -39 11.5t-35 12.5q-4 22 -4 33q0 65 43 164.5t121 245t118.5 229.5t40.5 131q-107 -35 -187.5 -99.5t-141.5 -160.5 q-30 -66 -91 -194.5t-135 -268t-94 -141.5q-22 0 -34.5 5t-23.5 14t-26 22q-15 6 -35 7.5t-26 8t-6 33.5q3 59 44 150t114.5 230t112 228t38.5 142q-77 -20 -134.5 -53t-99.5 -73.5t-86 -95.5q-17 -39 -60 -134t-113.5 -232.5t-149.5 -265.5q-20 0 -33.5 11.5t-26 29.5 t-18.5 22t-33.5 5.5t-43.5 8.5t-17 29z" />
<glyph unicode="n" horiz-adv-x="909" d="M-74 125q10 21 54.5 114t81.5 170.5t77.5 157.5t67.5 131q101 214 126.5 265t39.5 73q8 11 16 11q13 0 36.5 -19.5t31.5 -19.5q11 1 38 10.5t40 9.5q17 0 24 -10q-9 -37 -21.5 -60t-43.5 -77q29 18 66 42.5t73 44t72.5 31t70.5 11.5q58 0 113 -39q63 -49 63 -140 q0 -137 -151 -411q-61 -111 -94 -181.5t-53.5 -115.5t-59.5 -111q-25 0 -41 19.5t-33 25.5q-17 8 -42 10t-35.5 9t-10.5 26q3 61 41 153.5t117.5 252t110 224t40.5 116.5q-59 -15 -117 -58t-113 -101.5t-89.5 -101.5t-85.5 -108q-20 -50 -82 -179.5t-162 -301.5 q-30 0 -42.5 8.5t-21 27t-16.5 27.5q-15 11 -39 17.5t-35.5 15.5t-11.5 31z" />
<glyph unicode="o" horiz-adv-x="819" d="M-10 299q0 94 39 201t109.5 209.5t166.5 188.5t211 142q61 31 125 31q68 0 124 -37t91.5 -96.5t42.5 -116.5q0 -112 -50.5 -258t-135.5 -279t-194.5 -217.5t-221.5 -84.5q-80 0 -152 43q-155 79 -155 274zM199 266q0 -65 37 -82q84 0 158 59.5t157 184.5q30 47 58.5 116 t45.5 134t17 110q0 48 -19 60q-14 8 -32 8q-66 0 -153.5 -86t-141.5 -164q-55 -83 -91 -178t-36 -162z" />
<glyph unicode="p" horiz-adv-x="840" d="M-297 -358l676 1374q8 0 113 18q27 6 57 6q27 0 35 -8q-1 -12 -7.5 -36.5t-21.5 -45.5q49 37 197 62q33 6 61 6q93 0 136.5 -52.5t43.5 -144.5q0 -68 -23.5 -150.5t-66 -166.5t-102.5 -168t-127 -148q-85 -79 -208 -148t-218 -69q-74 0 -119 47l-252 -458q-21 3 -34.5 11 t-25 22.5t-20.5 21.5q-10 12 -35 12q-8 0 -25 -2t-24 -2q-10 0 -10 19zM225 221q25 -20 62 -20q51 0 115 35.5t127.5 96t105.5 124.5q121 191 121 286q0 64 -68 64q-61 0 -119.5 -35t-99.5 -86q-148 -265 -244 -465z" />
<glyph unicode="q" horiz-adv-x="860" d="M-51 213q0 79 40.5 165t116.5 191q57 86 128 162.5t152 135.5t179.5 100t198.5 53q21 0 50 -11t46 -18l47 51q92 0 117 -2q16 -3 30.5 -22.5t18.5 -22.5l-760 -1497q-28 2 -98 41q-28 17 -39.5 32.5t-11.5 47.5q8 55 43 124.5t105.5 185.5t97.5 167q-91 -53 -157 -82.5 t-126 -29.5q-121 0 -168 151q-10 34 -10 78zM154 156q128 0 301.5 211.5t300.5 420.5q14 30 14 46q0 26 -33 26q-12 0 -32 -4q-96 -49 -193 -123.5t-179 -169t-130.5 -198.5t-48.5 -209z" />
<glyph unicode="r" horiz-adv-x="741" d="M-4 111q14 51 52 167.5t102 272.5q50 120 126.5 284t79.5 164q14 11 31 11q15 0 32.5 -0.5t41.5 -1.5q9 2 40.5 22.5t53.5 20.5q17 0 33 -9q-33 -66 -88 -198q58 54 176.5 127.5t181.5 95.5q20 -8 28.5 -20.5t13 -29.5t11.5 -42q4 -9 19 -26t21.5 -27.5t6.5 -20.5 q0 -12 -4 -18q-173 -80 -262.5 -125.5t-163.5 -100.5t-120 -116q-70 -116 -244 -543q-39 4 -62.5 27t-31.5 38q-9 10 -35.5 18t-32.5 11.5t-6 18.5z" />
<glyph unicode="s" horiz-adv-x="922" d="M-61 205q0 36 12 76q13 41 50.5 79t88.5 63.5t96 25.5q89 0 117 -91q-64 -25 -89.5 -40t-38.5 -40.5t-13 -74.5q8 -25 65 -25q92 0 215.5 48t153.5 102q0 52 -45.5 84t-147 84t-153.5 100.5t-57 120.5q0 111 112.5 195t335.5 128q40 9 94 9q58 0 114.5 -11t98 -31 t53.5 -42q16 -17 39 -45t23 -41q0 -15 -4.5 -47.5t-7.5 -51.5q-53 -53 -91.5 -83.5t-90 -50t-111.5 -19.5q-39 26 -39 94q0 38 10 51q33 26 76 41t76 29q-80 20 -154 20q-92 0 -164.5 -30t-113.5 -72q0 -56 43.5 -94t145.5 -99t152 -110t50 -121q-13 -77 -85 -145t-175 -119 q-66 -34 -163 -52t-181 -18q-55 0 -95 6q-94 17 -148 69t-54 128z" />
<glyph unicode="t" horiz-adv-x="717" d="M88 94q47 108 89.5 193t96 182t111.5 198t141 255q-11 0 -250 -23q-28 0 -28 10q0 5 15.5 31.5t15.5 44.5q-3 6 -14 26.5t-11 28.5q0 17 16 35q98 19 189.5 24t171.5 17q9 15 22 39t47.5 84t47.5 82q28 44 62 104.5t50 90.5q24 12 56 17t40 7q30 0 59.5 -9.5t41.5 -27.5 q-21 -38 -58 -109t-75.5 -147t-69.5 -135q-2 0 110 6t175 8q-1 -10 -2.5 -23.5t-11 -32t-25.5 -30.5q-10 -10 -10 -24q1 -8 1.5 -14.5t0.5 -16.5q0 -16 -11 -29q-106 -4 -194 -14.5t-123 -17.5q-15 -29 -55.5 -108t-107 -209t-142 -283t-174.5 -359q-12 -4 -17 -4 q-21 0 -36.5 18.5t-29.5 46.5t-18 33q-8 13 -49 13t-47 22z" />
<glyph unicode="u" horiz-adv-x="983" d="M-6 215q0 112 76 267.5t174.5 294.5t191.5 251q12 6 25 6q17 0 39.5 -9.5t29.5 -10.5q10 0 34 6t36 6q21 0 29 -20q-130 -205 -200.5 -317t-116 -190.5t-68.5 -131.5t-23 -86q0 -21 10 -37q68 10 144.5 74.5t200 223t321.5 447.5q13 19 35 19q15 0 42.5 -10.5t41.5 -10.5 t38.5 14.5t37.5 14.5q15 0 28 -15l-456 -1015q-23 0 -31.5 6t-17.5 19.5t-17 19.5q-7 6 -38.5 12t-31.5 20q0 49 19.5 108.5t23.5 78.5q-10 -5 -60.5 -54t-98.5 -90t-111.5 -75.5t-120.5 -34.5q-102 0 -166 123q-20 40 -20 96z" />
<glyph unicode="v" horiz-adv-x="819" d="M94 45q0 58 22 305.5t39 414t27 259.5q22 10 41 10q16 0 31 -8.5t31 -17.5q14 -7 42.5 -8.5t44 -12t21.5 -43.5q0 -41 -3.5 -119t-12.5 -137q-14 -91 -25.5 -160t-19.5 -120q11 11 94.5 104.5t190 208.5t198 205.5t127.5 107.5q15 6 35 6h65q15 0 43 10.5t41 10.5 q24 0 31 -27l-907 -1036q-8 -4 -12 -4q-9 0 -30 14t-32 15q-39 2 -54 5t-28 17z" />
<glyph unicode="w" horiz-adv-x="1239" d="M12 57l148 914q20 14 41 14q17 0 35 -7l18 -7q1 0 33.5 11t52.5 11q18 0 27 -8l-105 -614q4 3 86 115.5t204 278t148 198.5q9 4 23 4q16 0 33.5 -6.5t25.5 -6.5q84 33 109 33q22 0 24 -14l-100 -651q7 7 69.5 93.5t182 242.5t199 249t114.5 109q8 8 21 8q12 0 41 -15.5 t37 -15.5q8 1 27 14t34 13q24 0 51 -23l-784 -999q-31 0 -71 36t-52 38q-11 0 -24.5 -0.5t-30.5 -1.5q-39 0 -51 12q-5 0 -5 45q0 13 32.5 168.5t78.5 337.5q-39 -56 -75 -105.5t-60 -84t-42.5 -60t-35.5 -51.5q-17 -25 -112 -146t-158 -200q-30 0 -49 11.5t-35 28t-23 17.5 q-16 0 -26.5 -0.5t-22.5 -1.5q-24 0 -33 16z" />
<glyph unicode="x" horiz-adv-x="891" d="M-2 178l418 422q-6 31 -16.5 81t-24.5 115.5t-26 122.5t-19 89q6 18 22 18q13 0 40.5 -11t41.5 -11q12 2 51.5 20t57.5 18q6 0 14 -4q22 -49 31.5 -89.5t19 -95.5t19.5 -101q54 54 111 120t83.5 93t75.5 63q9 6 21 6t43 -8t45 -8t20 4q35 20 76 20q30 0 51 -12 q-59 -66 -153.5 -164t-205 -211.5t-110.5 -117.5q10 -27 33 -122.5t51 -293.5q-11 -14 -56 -22.5t-61 -20.5q-10 -8 -23.5 -28t-23.5 -29t-22 -9q-5 0 -17 4l-90 344l-352 -376q-52 22 -80 67q-18 30 -31.5 65.5t-13.5 61.5z" />
<glyph unicode="y" horiz-adv-x="823" d="M-123 -358q0 11 6 20l312 461q-35 164 -35 614q0 174 6 262q2 3 7.5 7t14.5 4q40 0 97 -82q12 -6 22 -6q9 0 28.5 7t29.5 7q23 0 41 -29l-25 -610q28 38 78.5 106l101 136t78.5 106q-3 -3 -4 -3.5t-2 -0.5q0 2 44.5 57t92.5 114t82 101t51 62q21 14 70 14q63 0 71 -12 q11 -14 23 -22.5t27.5 -16t21.5 -13t6 -14.5q-50 -67 -176.5 -234t-221 -290.5t-140.5 -175.5q-24 -26 -153.5 -189t-246.5 -311.5t-172 -218.5q-26 3 -34.5 17.5t-17.5 43t-19 37.5q-64 17 -64 52z" />
<glyph unicode="z" horiz-adv-x="932" d="M-31 137q39 41 119.5 118.5t151.5 133.5q39 30 160 120.5t227 169t153 112.5q-78 -15 -246.5 -48.5t-242.5 -50.5q-21 0 -21 35v35q0 24 -4 33q-4 10 -31.5 33.5t-27.5 41.5q0 5 4 17q64 17 138.5 28t124 16t146 13.5t132.5 11.5q32 5 84 5q18 0 40.5 -1.5t73.5 -5 t84 -4.5q15 -12 15 -28q-1 -5 -8 -26.5t-7 -35.5q2 -9 19.5 -26.5l23.5 -23.5t6 -15q-29 -26 -85 -75.5t-171 -148t-186 -155.5q-78 -62 -176.5 -128t-149.5 -98q31 0 113 8.5t112.5 11.5t71.5 3q77 0 162 -14q14 -13 14 -25q0 -9 -8 -30t-8 -31q4 -8 15.5 -21t18.5 -26.5 t7 -32.5l-770 -49q-23 16 -23 32q1 9 2 20.5t1 26.5q-6 14 -22.5 25.5t-24 20t-7.5 28.5z" />
<glyph unicode="&#xa2;" horiz-adv-x="836" d="M27 203q0 69 31 169.5t103 213t193.5 212t290.5 158.5q0 2 44.5 90t74.5 146l211 6l-125 -223q24 -7 67 -24t60 -33q8 4 14 4q27 0 65 -38t50 -71q0 -22 -56 -68.5t-120 -86.5t-88 -40q0 2 -17 25t-26 43q-12 24 -15.5 38.5t-3.5 20.5q0 37 68 84l-21 -3t-20 -8t-27 -15 q-20 -39 -64.5 -129.5t-96 -194.5t-101 -204t-55.5 -113q76 38 151.5 95.5t110.5 115.5q6 -12 6 -25q0 -14 -2.5 -26t-6 -21t-5.5 -22q-2 -11 -3 -29t-6.5 -35t-19.5 -31q-23 -23 -77 -61t-119.5 -77t-112.5 -56q-29 -56 -57.5 -111.5t-57.5 -111.5l-186 4q27 50 66.5 127 t39.5 84q-46 8 -70 26.5t-36.5 42.5t-42.5 96q-8 18 -8 56zM217 180q0 -27 12 -45q9 0 12 -0.5t7 -1.5q22 52 155.5 305.5t137.5 253.5q-128 -118 -226 -273t-98 -239z" />
<glyph unicode="&#xa9;" horiz-adv-x="1032" d="M-37 799q0 139 69.5 257.5t189 188.5t257.5 70q109 0 203 -41t163.5 -111t109.5 -163.5t40 -200.5q0 -141 -69 -259t-188 -187.5t-259 -69.5q-104 0 -197.5 39.5t-166 111.5t-112.5 167t-40 198zM74 799q0 -81 32 -158t90.5 -134.5t133.5 -88.5t155 -31q114 0 207.5 55 t149 149.5t55.5 207.5t-55 206.5t-149.5 149t-207.5 55.5q-84 0 -158.5 -32t-131.5 -88t-89 -133t-32 -158zM250 666q0 44 20 101t62 115t107.5 103t156.5 68q10 4 33 4q25 0 44.5 -12t22.5 -25q9 6 17 6q17 0 34 -14t25 -29q0 -11 -30.5 -44t-66.5 -63.5t-46 -31.5l-12.5 5 t-8.5 3l-12 22q-7 2 -17 8.5t-10 16.5q6 12 14 26.5t19.5 29.5t28.5 28q-58 -11 -121.5 -73t-107.5 -139t-44 -126q0 -24 13 -35q15 -10 43 -10q49 0 104.5 43.5t83.5 99.5q4 -4 4 -14q-1 -5 -1.5 -9.5t-2.5 -8.5q1 -4 4.5 -15t3.5 -26q-18 -64 -75 -107t-123 -43 q-93 0 -148 84q-14 21 -14 62z" />
<glyph unicode="&#xad;" d="M-27 618q0 24 27 46q23 17 23 55q1 9 1.5 17.5t0.5 37.5l651 86q0 -10 2 -24t2 -21q0 -19 -16 -41q-19 -21 -19 -43q0 -4 1.5 -10.5t2.5 -13.5t1.5 -13t0.5 -18l-676 -111q0 19 -0.5 30t-1.5 23z" />
<glyph unicode="&#xba;" horiz-adv-x="418" d="M8 1169q0 64 33.5 135.5t94.5 136t134 99.5q31 16 64 16q35 0 62 -18t45 -47t22 -59q0 -77 -43.5 -177.5t-113.5 -172.5t-144 -72q-37 0 -76 22q-78 39 -78 137zM121 1165q0 -32 22 -43q44 0 72.5 25t73.5 92q51 80 51 143q0 31 -14 39q-7 4 -19 4q-49 0 -127 -112 q-59 -83 -59 -148z" />
<glyph unicode="&#x2000;" horiz-adv-x="913" />
<glyph unicode="&#x2001;" horiz-adv-x="1827" />
<glyph unicode="&#x2002;" horiz-adv-x="913" />
<glyph unicode="&#x2003;" horiz-adv-x="1827" />
<glyph unicode="&#x2004;" horiz-adv-x="609" />
<glyph unicode="&#x2005;" horiz-adv-x="456" />
<glyph unicode="&#x2006;" horiz-adv-x="304" />
<glyph unicode="&#x2007;" horiz-adv-x="304" />
<glyph unicode="&#x2008;" horiz-adv-x="228" />
<glyph unicode="&#x2009;" horiz-adv-x="365" />
<glyph unicode="&#x200a;" horiz-adv-x="101" />
<glyph unicode="&#x2010;" d="M-27 618q0 24 27 46q23 17 23 55q1 9 1.5 17.5t0.5 37.5l651 86q0 -10 2 -24t2 -21q0 -19 -16 -41q-19 -21 -19 -43q0 -4 1.5 -10.5t2.5 -13.5t1.5 -13t0.5 -18l-676 -111q0 19 -0.5 30t-1.5 23z" />
<glyph unicode="&#x2011;" d="M-27 618q0 24 27 46q23 17 23 55q1 9 1.5 17.5t0.5 37.5l651 86q0 -10 2 -24t2 -21q0 -19 -16 -41q-19 -21 -19 -43q0 -4 1.5 -10.5t2.5 -13.5t1.5 -13t0.5 -18l-676 -111q0 19 -0.5 30t-1.5 23z" />
<glyph unicode="&#x2012;" d="M-27 618q0 24 27 46q23 17 23 55q1 9 1.5 17.5t0.5 37.5l651 86q0 -10 2 -24t2 -21q0 -19 -16 -41q-19 -21 -19 -43q0 -4 1.5 -10.5t2.5 -13.5t1.5 -13t0.5 -18l-676 -111q0 19 -0.5 30t-1.5 23z" />
<glyph unicode="&#x2013;" horiz-adv-x="909" d="M-2 692q0 25 27 45q22 17 22 56q1 9 1.5 17.5t0.5 37.5l848 86q0 -10 2 -24t2 -21q0 -20 -16 -41q-19 -22 -19 -43q0 -4 1.5 -10.5t2.5 -13.5t1.5 -13t0.5 -18l-872 -111q0 18 -0.5 29t-1.5 24z" />
<glyph unicode="&#x2014;" horiz-adv-x="1364" d="M-2 606q0 25 27 45q22 17 22 56q1 9 1.5 17.5t0.5 37.5l1266 110q0 -8 2 -23t2 -22q0 -19 -16 -41q-19 -21 -19 -43q0 -4 1.5 -10.5t2.5 -13.5t1.5 -12.5t0.5 -18.5l-1290 -135q0 18 -0.5 29t-1.5 24z" />
<glyph unicode="&#x2018;" horiz-adv-x="369" d="M-14 1454q0 56 22 94q11 16 42.5 40.5t84.5 25.5q117 0 187 -105q18 -27 18 -67q0 -34 -15 -64.5t-40 -46.5q-35 -20 -35 -45q0 -23 24 -48t74 -64.5t72 -61t22 -41.5q-27 -6 -55 -6q-65 0 -136.5 35t-131.5 92.5t-96.5 127.5t-36.5 134z" />
<glyph unicode="&#x2019;" horiz-adv-x="614" d="M309 1049q0 21 27 46t71.5 59t69.5 60.5t25 49.5q0 24 -35 45q-25 15 -40 46.5t-15 63.5q0 40 18 68q25 38 53.5 61t61.5 33t71 10q53 -2 84.5 -25.5t42.5 -39.5q23 -40 23 -92q0 -90 -61.5 -180t-156.5 -151t-183 -61q-30 0 -56 7z" />
<glyph unicode="&#x201c;" horiz-adv-x="774" d="M-14 1454q0 56 22 94q11 16 42.5 40.5t84.5 25.5q117 0 187 -105q18 -27 18 -67q0 -34 -15 -64.5t-40 -46.5q-35 -20 -35 -45q0 -23 24 -48t74 -64.5t72 -61t22 -41.5q-27 -6 -55 -6q-65 0 -136.5 35t-131.5 92.5t-96.5 127.5t-36.5 134zM416 1454q0 56 22 94 q11 16 42.5 40.5t84.5 25.5q117 0 187 -105q18 -27 18 -67q0 -33 -16 -65t-39 -46q-35 -20 -35 -45q0 -23 24 -48t74 -64.5t72 -61t22 -41.5q-27 -6 -55 -6q-65 0 -136.5 35t-131.5 92.5t-96.5 127.5t-36.5 134z" />
<glyph unicode="&#x201d;" horiz-adv-x="983" d="M248 1049q0 21 27 46t72 60t69 60.5t24 48.5q0 24 -34 45q-25 15 -40.5 45.5t-15.5 64.5q0 41 19 68q39 58 82 81t104 23q53 -2 84.5 -25.5t42.5 -39.5q23 -42 23 -92q0 -90 -62.5 -180.5t-157.5 -151t-182 -60.5q-30 0 -55 7zM678 1049q0 21 27 46t72 60t69 60.5 t24 48.5q0 24 -34 45q-25 15 -40.5 45.5t-15.5 64.5q0 41 19 68q39 58 82 81t104 23q53 -2 84.5 -25.5t42.5 -39.5q23 -42 23 -92q0 -90 -62.5 -180.5t-157.5 -151t-182 -60.5q-30 0 -55 7z" />
<glyph unicode="&#x2022;" horiz-adv-x="725" d="M0 799q0 81 31.5 165t89 157.5t133.5 126t158 73.5q52 14 106 14q134 0 219.5 -86.5t85.5 -228.5q0 -86 -32.5 -169.5t-88 -154t-131 -123t-159.5 -75.5q-51 -15 -107 -15q-87 0 -156 39t-109 110.5t-40 166.5z" />
<glyph unicode="&#x202f;" horiz-adv-x="365" />
<glyph unicode="&#x205f;" horiz-adv-x="456" />
<glyph unicode="&#x25fc;" horiz-adv-x="1040" d="M0 0v1040h1040v-1040h-1040z" />
</font>
</defs>
</svg>
