<?xml version="1.0" encoding="utf-8"?>
<!-- Generator: Adobe Illustrator 18.0.0, SVG Export Plug-In . SVG Version: 6.00 Build 0)  -->
<!DOCTYPE svg PUBLIC "-//W3C//DTD SVG 1.1//EN" "http://www.w3.org/Graphics/SVG/1.1/DTD/svg11.dtd">
<svg version="1.1" id="Layer_1" xmlns="http://www.w3.org/2000/svg" xmlns:xlink="http://www.w3.org/1999/xlink" x="0px" y="0px"
	 viewBox="0 0 248 75" enable-background="new 0 0 248 75" xml:space="preserve">
<path fill="#212121" d="M66.3,72.8H7.1c-3,0-5.4-2.4-5.4-5.4V8.2c0-3,2.4-5.4,5.4-5.4h59.2c3,0,5.4,2.4,5.4,5.4v59.2
	C71.7,70.3,69.2,72.8,66.3,72.8z M69.2,31.8l1-7.4h-36v7.4h13.2v41h9.3v-41H69.2z"/>
<path fill="#212121" d="M95.2,54.5c0,1,0.1,1.7,0.4,2.2s0.8,0.8,1.4,1.1L95.7,62c-1.4-0.1-2.6-0.5-3.5-1c-0.9-0.5-1.7-1.4-2.2-2.5
	c-1,1.3-2.1,2.2-3.5,2.8s-2.9,0.9-4.5,0.9c-1.4,0-2.6-0.2-3.7-0.6c-1.1-0.4-2-1-2.7-1.7c-0.8-0.7-1.3-1.6-1.7-2.6
	c-0.4-1-0.6-2.1-0.6-3.4c0-2.8,1.1-5,3.2-6.5s5.3-2.3,9.3-2.3H89v-1.5c0-1.7-0.4-2.9-1.2-3.5c-0.8-0.6-2.2-1-4-1
	c-0.9,0-1.9,0.1-3.1,0.3c-1.2,0.2-2.5,0.6-3.8,1L75.3,36c1.7-0.6,3.4-1.1,4.9-1.4c1.6-0.3,3.1-0.5,4.5-0.5c3.7,0,6.4,0.8,8,2.3
	c1.6,1.5,2.5,3.8,2.5,6.7V54.5z M83.9,57.5c1.1,0,2-0.3,2.9-0.9c0.8-0.6,1.6-1.4,2.2-2.4v-5.3h-2.3c-2.5,0-4.2,0.4-5.2,1.2
	s-1.5,1.9-1.5,3.4C80.1,56.1,81.4,57.5,83.9,57.5z"/>
<path fill="#212121" d="M118.1,42.6c0-1.3-0.3-2.3-0.8-2.8c-0.5-0.6-1.3-0.8-2.5-0.8c-1.1,0-2.1,0.4-3,1.1c-0.9,0.7-1.7,1.6-2.5,2.6
	v18.7H103V34.9h5.5l0.5,3.3c1.1-1.3,2.4-2.3,3.8-3c1.4-0.7,2.9-1,4.5-1c2.5,0,4.3,0.7,5.5,2.1c1.2,1.4,1.8,3.3,1.8,5.8v19.3h-6.4
	V42.6z"/>
<path fill="#212121" d="M134.8,64c0,1.5,0.5,2.5,1.6,3c1.1,0.5,2.7,0.8,4.8,0.8c1.3,0,2.4-0.1,3.3-0.3c0.9-0.2,1.6-0.4,2.1-0.8
	c0.5-0.3,0.8-0.7,1-1.1c0.2-0.4,0.3-0.9,0.3-1.3c0-0.9-0.3-1.7-1-2.3c-0.6-0.6-1.9-0.9-3.7-0.9h-3.8c-2.5,0-4.4-0.5-5.7-1.4
	c-1.3-1-2-2.2-2-3.8c0-0.9,0.3-1.8,0.8-2.6c0.5-0.8,1.2-1.5,2-2.2c-1.4-0.8-2.5-1.8-3.2-3s-1.1-2.8-1.1-4.7c0-1.5,0.3-2.8,0.9-4
	c0.6-1.2,1.4-2.1,2.4-2.9c1-0.8,2.2-1.4,3.5-1.8s2.7-0.6,4.2-0.6c2.8,0,5.2-0.3,7.2-0.9c2-0.6,3.7-1.3,5.2-2.1l1.7,5.1
	c-1.1,0.4-2.2,0.6-3.5,0.7c-1.3,0.1-2.6,0.2-4,0.2v0.2c1.4,0.6,2.5,1.5,3.3,2.6c0.8,1.1,1.2,2.4,1.2,4c0,1.3-0.2,2.4-0.7,3.5
	c-0.5,1.1-1.2,2-2.1,2.8c-0.9,0.8-2,1.4-3.4,1.9c-1.3,0.5-2.8,0.7-4.4,0.7c-1.1,0-2.2-0.1-3.4-0.4c-0.2,0.2-0.4,0.5-0.6,0.8
	c-0.2,0.3-0.2,0.7-0.2,1c0,0.7,0.3,1.2,0.8,1.5s1.6,0.4,3.2,0.4h2.6c3.3,0,5.8,0.7,7.6,2c1.8,1.3,2.7,3.2,2.7,5.6
	c0,1.4-0.3,2.6-1,3.7c-0.6,1-1.5,1.9-2.7,2.6s-2.6,1.2-4.2,1.6c-1.6,0.3-3.4,0.5-5.4,0.5c-2.2,0-4.1-0.2-5.6-0.6s-2.8-0.9-3.7-1.6
	s-1.6-1.6-2.1-2.6c-0.4-1-0.6-2.2-0.6-3.5V64H134.8z M136.8,43.6c0,1.6,0.4,2.8,1.2,3.7c0.8,0.9,2,1.4,3.5,1.4s2.6-0.5,3.4-1.4
	s1.2-2.2,1.2-3.8c0-3.3-1.5-5-4.6-5c-1.5,0-2.7,0.5-3.5,1.4C137.2,40.9,136.8,42.1,136.8,43.6z"/>
<path fill="#212121" d="M156.6,48.1c0-2.1,0.3-4,0.8-5.7c0.6-1.7,1.4-3.2,2.5-4.4c1.1-1.2,2.4-2.2,3.9-2.8c1.5-0.7,3.3-1,5.3-1
	c2,0,3.7,0.3,5.3,1c1.5,0.7,2.8,1.6,3.9,2.8c1.1,1.2,1.9,2.7,2.4,4.4c0.6,1.7,0.8,3.6,0.8,5.7c0,2.1-0.3,4.1-0.8,5.8
	c-0.6,1.7-1.4,3.2-2.5,4.4c-1.1,1.2-2.4,2.2-3.9,2.8c-1.5,0.7-3.3,1-5.3,1s-3.7-0.3-5.3-1c-1.5-0.7-2.8-1.6-3.9-2.8
	c-1.1-1.2-1.9-2.7-2.5-4.4C156.9,52.2,156.6,50.3,156.6,48.1z M174.8,48.1c0-3.1-0.5-5.4-1.4-6.9S171,39,169.1,39
	c-1.9,0-3.3,0.7-4.3,2.2c-1,1.5-1.5,3.8-1.5,6.9c0,3.2,0.5,5.5,1.5,7c1,1.4,2.4,2.2,4.3,2.2c1.9,0,3.3-0.7,4.3-2.2
	C174.3,53.6,174.8,51.3,174.8,48.1z"/>
<path fill="#212121" d="M212.7,51.3c0,2-0.4,3.6-1.1,4.9c-0.8,1.3-1.8,2.3-3.1,3s-2.7,1.3-4.4,1.6c-1.6,0.3-3.4,0.5-5.1,0.5h-11.1
	V26.8h10.5c1.7,0,3.3,0.1,4.8,0.4c1.5,0.3,2.9,0.8,4.1,1.4c1.2,0.7,2.1,1.6,2.9,2.7c0.7,1.1,1.1,2.5,1.1,4.3c0,1.1-0.2,2-0.5,2.9
	c-0.4,0.8-0.8,1.5-1.4,2.1c-0.6,0.6-1.2,1.1-2,1.5s-1.4,0.7-2.1,0.8v0.2c0.8,0.2,1.7,0.4,2.6,0.8c0.9,0.3,1.7,0.8,2.4,1.5
	c0.7,0.6,1.3,1.5,1.8,2.4S212.7,50,212.7,51.3z M204.5,36.1c0-1.6-0.5-2.8-1.5-3.4c-1-0.7-2.5-1.1-4.4-1.1h-4.1V41h4.4
	c1.9,0,3.3-0.4,4.2-1.2C204.1,39.1,204.5,37.8,204.5,36.1z M205.8,51.2c0-1.1-0.2-2-0.5-2.7c-0.3-0.7-0.8-1.3-1.3-1.7
	c-0.6-0.4-1.2-0.7-2-0.9c-0.8-0.2-1.6-0.3-2.6-0.3h-4.9v10.8h4.6c0.8,0,1.6-0.1,2.5-0.2c0.8-0.1,1.5-0.4,2.1-0.8
	c0.6-0.4,1.1-0.9,1.5-1.6C205.6,53.1,205.8,52.3,205.8,51.2z"/>
<path fill="#212121" d="M244,51.3c0,2-0.4,3.6-1.1,4.9c-0.8,1.3-1.8,2.3-3.1,3s-2.7,1.3-4.4,1.6c-1.6,0.3-3.4,0.5-5.1,0.5h-11.1
	V26.8h10.5c1.7,0,3.3,0.1,4.8,0.4c1.5,0.3,2.9,0.8,4.1,1.4c1.2,0.7,2.1,1.6,2.9,2.7c0.7,1.1,1.1,2.5,1.1,4.3c0,1.1-0.2,2-0.5,2.9
	c-0.4,0.8-0.8,1.5-1.4,2.1c-0.6,0.6-1.2,1.1-2,1.5s-1.4,0.7-2.1,0.8v0.2c0.8,0.2,1.7,0.4,2.6,0.8c0.9,0.3,1.7,0.8,2.4,1.5
	c0.7,0.6,1.3,1.5,1.8,2.4S244,50,244,51.3z M235.8,36.1c0-1.6-0.5-2.8-1.5-3.4c-1-0.7-2.5-1.1-4.4-1.1h-4.1V41h4.4
	c1.9,0,3.3-0.4,4.2-1.2C235.3,39.1,235.8,37.8,235.8,36.1z M237.1,51.2c0-1.1-0.2-2-0.5-2.7c-0.3-0.7-0.8-1.3-1.3-1.7
	c-0.6-0.4-1.2-0.7-2-0.9c-0.8-0.2-1.6-0.3-2.6-0.3h-4.9v10.8h4.6c0.8,0,1.6-0.1,2.5-0.2c0.8-0.1,1.5-0.4,2.1-0.8
	c0.6-0.4,1.1-0.9,1.5-1.6C236.9,53.1,237.1,52.3,237.1,51.2z"/>
</svg>
