<?xml version="1.0" encoding="utf-8"?>
<!-- Generator: Adobe Illustrator 18.0.0, SVG Export Plug-In . SVG Version: 6.00 Build 0)  -->
<!DOCTYPE svg PUBLIC "-//W3C//DTD SVG 1.1//EN" "http://www.w3.org/Graphics/SVG/1.1/DTD/svg11.dtd">
<svg version="1.1" id="Layer_1" xmlns="http://www.w3.org/2000/svg" xmlns:xlink="http://www.w3.org/1999/xlink" x="0px" y="0px"
	 viewBox="0 0 248 75" enable-background="new 0 0 248 75" xml:space="preserve">
<path fill="#EDEDED" d="M67.8,73.5h-60c-2.8,0-5-2.3-5-5v-60c0-2.8,2.3-5,5-5h60c2.8,0,5,2.3,5,5v60C72.8,71.2,70.6,73.5,67.8,73.5z
	 M71.1,32.4l1-7.4h-36v7.4h13.2v41h9.3v-41H71.1z"/>
<g>
	<path fill="#EDEDED" d="M96.4,56.4c0,1,0.1,1.7,0.4,2.2c0.3,0.5,0.8,0.8,1.4,1.1l-1.4,4.3c-1.4-0.1-2.6-0.5-3.5-1
		c-1-0.5-1.7-1.4-2.2-2.6c-1,1.3-2.1,2.2-3.5,2.8S84.7,64,83.1,64c-1.4,0-2.6-0.2-3.6-0.6c-1.1-0.4-2-1-2.7-1.7s-1.3-1.6-1.7-2.6
		s-0.6-2.1-0.6-3.4c0-2.8,1.1-5,3.2-6.5s5.3-2.3,9.3-2.3h3.3v-1.5c0-1.7-0.4-2.9-1.2-3.5c-0.8-0.7-2.2-1-4-1c-0.9,0-1.9,0.1-3.1,0.3
		c-1.2,0.2-2.5,0.6-3.8,1l-1.6-4.4c1.7-0.6,3.4-1.1,5-1.4s3.1-0.5,4.4-0.5c3.7,0,6.4,0.8,8.1,2.3c1.6,1.5,2.4,3.8,2.4,6.7V56.4z
		 M85.1,59.4c1.1,0,2-0.3,2.9-0.8c0.9-0.6,1.6-1.4,2.2-2.4v-5.3h-2.3c-2.5,0-4.2,0.4-5.2,1.2s-1.5,1.9-1.5,3.3
		C81.2,58.1,82.5,59.4,85.1,59.4z"/>
	<path fill="#EDEDED" d="M119.2,44.6c0-1.3-0.3-2.3-0.8-2.8c-0.5-0.6-1.3-0.9-2.5-0.9c-1.1,0-2.1,0.4-3,1.1
		c-0.9,0.7-1.7,1.6-2.5,2.6v18.7h-6.4V36.8h5.5l0.5,3.3c1.1-1.3,2.4-2.3,3.8-3c1.4-0.7,2.9-1,4.5-1c2.5,0,4.3,0.7,5.5,2
		c1.2,1.4,1.8,3.3,1.8,5.8v19.4h-6.4V44.6z"/>
	<path fill="#EDEDED" d="M136,65.9c0,1.5,0.5,2.5,1.6,3c1.1,0.5,2.7,0.8,4.8,0.8c1.3,0,2.4-0.1,3.3-0.3c0.9-0.2,1.6-0.4,2.1-0.8
		c0.5-0.3,0.8-0.7,1-1.1c0.2-0.4,0.3-0.9,0.3-1.3c0-0.9-0.3-1.7-1-2.3c-0.6-0.6-1.9-0.9-3.7-0.9h-3.8c-2.5,0-4.4-0.5-5.7-1.4
		c-1.3-1-2-2.2-2-3.8c0-0.9,0.3-1.8,0.8-2.6s1.2-1.6,2-2.2c-1.4-0.8-2.5-1.8-3.2-3c-0.7-1.2-1.1-2.8-1.1-4.7c0-1.5,0.3-2.8,0.9-4
		c0.6-1.2,1.4-2.1,2.4-2.9c1-0.8,2.2-1.4,3.5-1.8s2.7-0.6,4.2-0.6c2.8,0,5.2-0.3,7.2-0.9c2-0.6,3.7-1.3,5.2-2.1l1.7,5.1
		c-1.1,0.4-2.2,0.6-3.5,0.7c-1.3,0.1-2.6,0.2-4,0.2v0.2c1.4,0.6,2.5,1.5,3.3,2.5c0.8,1.1,1.2,2.5,1.2,4c0,1.3-0.2,2.4-0.7,3.5
		c-0.5,1.1-1.2,2-2.1,2.8c-0.9,0.8-2,1.4-3.4,1.9c-1.3,0.5-2.8,0.7-4.4,0.7c-1.1,0-2.2-0.1-3.4-0.4c-0.2,0.2-0.4,0.5-0.6,0.9
		c-0.2,0.3-0.2,0.7-0.2,1c0,0.7,0.3,1.2,0.8,1.5s1.6,0.4,3.2,0.4h2.6c3.3,0,5.8,0.7,7.6,2c1.8,1.4,2.7,3.2,2.7,5.6
		c0,1.4-0.3,2.6-1,3.7c-0.6,1-1.5,1.9-2.7,2.6s-2.6,1.2-4.2,1.6c-1.6,0.3-3.4,0.5-5.4,0.5c-2.2,0-4.1-0.2-5.6-0.6s-2.8-0.9-3.7-1.6
		s-1.6-1.6-2.1-2.6c-0.4-1-0.6-2.2-0.6-3.5v-0.1H136z M137.9,45.5c0,1.6,0.4,2.8,1.2,3.7c0.8,0.9,2,1.4,3.5,1.4s2.6-0.5,3.4-1.4
		c0.8-0.9,1.2-2.2,1.2-3.8c0-3.3-1.5-5-4.6-5c-1.5,0-2.7,0.5-3.5,1.4C138.3,42.8,137.9,44,137.9,45.5z"/>
	<path fill="#EDEDED" d="M157.7,50c0-2.1,0.3-4,0.8-5.7c0.6-1.7,1.4-3.2,2.5-4.4c1.1-1.2,2.4-2.2,3.9-2.8c1.5-0.7,3.3-1,5.3-1
		c2,0,3.7,0.3,5.3,1c1.5,0.7,2.8,1.6,3.9,2.8c1.1,1.2,1.9,2.7,2.4,4.4c0.6,1.7,0.8,3.6,0.8,5.7c0,2.1-0.3,4.1-0.8,5.8
		c-0.6,1.7-1.4,3.2-2.5,4.4c-1.1,1.2-2.4,2.2-3.9,2.8s-3.3,1-5.3,1s-3.7-0.3-5.3-1c-1.5-0.7-2.8-1.6-3.9-2.8
		c-1.1-1.2-1.9-2.7-2.5-4.4C158,54.2,157.7,52.2,157.7,50z M175.9,50c0-3.1-0.5-5.4-1.4-6.9c-1-1.5-2.4-2.2-4.3-2.2
		c-1.9,0-3.3,0.7-4.3,2.2c-1,1.5-1.5,3.8-1.5,6.9c0,3.2,0.5,5.5,1.5,7s2.4,2.2,4.3,2.2c1.9,0,3.3-0.7,4.3-2.2
		C175.4,55.6,175.9,53.2,175.9,50z"/>
	<path fill="#EDEDED" d="M213.9,53.3c0,2-0.4,3.6-1.1,4.9c-0.8,1.3-1.8,2.3-3.1,3s-2.7,1.3-4.4,1.6c-1.6,0.3-3.4,0.5-5.1,0.5H189
		V28.7h10.5c1.7,0,3.3,0.1,4.8,0.4c1.5,0.3,2.9,0.8,4.1,1.4c1.2,0.7,2.1,1.6,2.9,2.7c0.7,1.1,1.1,2.5,1.1,4.3c0,1.1-0.2,2-0.5,2.8
		c-0.4,0.8-0.8,1.5-1.4,2.2c-0.6,0.6-1.2,1.1-2,1.5c-0.7,0.4-1.4,0.7-2.1,0.8V45c0.8,0.2,1.7,0.4,2.6,0.8c0.9,0.4,1.7,0.9,2.4,1.5
		c0.7,0.7,1.3,1.5,1.8,2.4S213.9,51.9,213.9,53.3z M205.7,38.1c0-1.6-0.5-2.8-1.5-3.4c-1-0.7-2.5-1.1-4.4-1.1h-4.1v9.3h4.4
		c1.9,0,3.3-0.4,4.2-1.1S205.7,39.8,205.7,38.1z M207,53.1c0-1.1-0.2-2-0.5-2.7c-0.3-0.7-0.8-1.3-1.3-1.7s-1.2-0.7-2-0.9
		c-0.8-0.2-1.6-0.3-2.6-0.3h-4.9v10.8h4.6c0.8,0,1.6-0.1,2.5-0.2c0.8-0.1,1.5-0.4,2.1-0.8c0.6-0.4,1.1-0.9,1.5-1.6
		C206.8,55.1,207,54.2,207,53.1z"/>
	<path fill="#EDEDED" d="M245.1,53.3c0,2-0.4,3.6-1.1,4.9c-0.8,1.3-1.8,2.3-3.1,3s-2.7,1.3-4.4,1.6c-1.6,0.3-3.4,0.5-5.1,0.5h-11.1
		V28.7h10.5c1.7,0,3.3,0.1,4.8,0.4c1.5,0.3,2.9,0.8,4.1,1.4c1.2,0.7,2.1,1.6,2.9,2.7c0.7,1.1,1.1,2.5,1.1,4.3c0,1.1-0.2,2-0.5,2.8
		c-0.4,0.8-0.8,1.5-1.4,2.2c-0.6,0.6-1.2,1.1-2,1.5c-0.7,0.4-1.4,0.7-2.1,0.8V45c0.8,0.2,1.7,0.4,2.6,0.8c0.9,0.4,1.7,0.9,2.4,1.5
		c0.7,0.7,1.3,1.5,1.8,2.4S245.1,51.9,245.1,53.3z M236.9,38.1c0-1.6-0.5-2.8-1.5-3.4c-1-0.7-2.5-1.1-4.4-1.1h-4.1v9.3h4.4
		c1.9,0,3.3-0.4,4.2-1.1S236.9,39.8,236.9,38.1z M238.2,53.1c0-1.1-0.2-2-0.5-2.7c-0.3-0.7-0.8-1.3-1.3-1.7s-1.2-0.7-2-0.9
		c-0.8-0.2-1.6-0.3-2.6-0.3h-4.9v10.8h4.6c0.8,0,1.6-0.1,2.5-0.2c0.8-0.1,1.5-0.4,2.1-0.8c0.6-0.4,1.1-0.9,1.5-1.6
		C238,55.1,238.2,54.2,238.2,53.1z"/>
</g>
</svg>
